<?xml version="1.0" encoding="utf-8" standalone="no"?>
<!DOCTYPE svg PUBLIC "-//W3C//DTD SVG 1.1//EN"
  "http://www.w3.org/Graphics/SVG/1.1/DTD/svg11.dtd">
<!-- Created with matplotlib (http://matplotlib.org/) -->
<svg height="720pt" version="1.1" viewBox="0 0 1440 720" width="1440pt" xmlns="http://www.w3.org/2000/svg" xmlns:xlink="http://www.w3.org/1999/xlink">
 <defs>
  <style type="text/css">
*{stroke-linecap:butt;stroke-linejoin:round;}
  </style>
 </defs>
 <g id="figure_1">
  <g id="patch_1">
   <path d="M 0 720 
L 1440 720 
L 1440 0 
L 0 0 
z
" style="fill:#ffffff;"/>
  </g>
  <g id="axes_1">
   <g id="patch_2">
    <path d="M 180 640.8 
L 1296 640.8 
L 1296 86.4 
L 180 86.4 
z
" style="fill:#ffffff;"/>
   </g>
   <g id="matplotlib.axis_1">
    <g id="xtick_1">
     <g id="line2d_1">
      <path clip-path="url(#pd458505897)" d="M 528.76197 640.8 
L 528.76197 86.4 
" style="fill:none;stroke:#b0b0b0;stroke-linecap:square;stroke-width:0.8;"/>
     </g>
     <g id="line2d_2">
      <defs>
       <path d="M 0 0 
L 0 3.5 
" id="mcae589ff12" style="stroke:#000000;stroke-width:0.8;"/>
      </defs>
      <g>
       <use style="stroke:#000000;stroke-width:0.8;" x="528.76197" xlink:href="#mcae589ff12" y="640.8"/>
      </g>
     </g>
     <g id="text_1">
      <!-- $\mathdefault{10^{2}}$ -->
      <defs>
       <path d="M 12.40625 8.296875 
L 28.515625 8.296875 
L 28.515625 63.921875 
L 10.984375 60.40625 
L 10.984375 69.390625 
L 28.421875 72.90625 
L 38.28125 72.90625 
L 38.28125 8.296875 
L 54.390625 8.296875 
L 54.390625 0 
L 12.40625 0 
z
" id="DejaVuSans-31"/>
       <path d="M 31.78125 66.40625 
Q 24.171875 66.40625 20.328125 58.90625 
Q 16.5 51.421875 16.5 36.375 
Q 16.5 21.390625 20.328125 13.890625 
Q 24.171875 6.390625 31.78125 6.390625 
Q 39.453125 6.390625 43.28125 13.890625 
Q 47.125 21.390625 47.125 36.375 
Q 47.125 51.421875 43.28125 58.90625 
Q 39.453125 66.40625 31.78125 66.40625 
z
M 31.78125 74.21875 
Q 44.046875 74.21875 50.515625 64.515625 
Q 56.984375 54.828125 56.984375 36.375 
Q 56.984375 17.96875 50.515625 8.265625 
Q 44.046875 -1.421875 31.78125 -1.421875 
Q 19.53125 -1.421875 13.0625 8.265625 
Q 6.59375 17.96875 6.59375 36.375 
Q 6.59375 54.828125 13.0625 64.515625 
Q 19.53125 74.21875 31.78125 74.21875 
z
" id="DejaVuSans-30"/>
       <path d="M 19.1875 8.296875 
L 53.609375 8.296875 
L 53.609375 0 
L 7.328125 0 
L 7.328125 8.296875 
Q 12.9375 14.109375 22.625 23.890625 
Q 32.328125 33.6875 34.8125 36.53125 
Q 39.546875 41.84375 41.421875 45.53125 
Q 43.3125 49.21875 43.3125 52.78125 
Q 43.3125 58.59375 39.234375 62.25 
Q 35.15625 65.921875 28.609375 65.921875 
Q 23.96875 65.921875 18.8125 64.3125 
Q 13.671875 62.703125 7.8125 59.421875 
L 7.8125 69.390625 
Q 13.765625 71.78125 18.9375 73 
Q 24.125 74.21875 28.421875 74.21875 
Q 39.75 74.21875 46.484375 68.546875 
Q 53.21875 62.890625 53.21875 53.421875 
Q 53.21875 48.921875 51.53125 44.890625 
Q 49.859375 40.875 45.40625 35.40625 
Q 44.1875 33.984375 37.640625 27.21875 
Q 31.109375 20.453125 19.1875 8.296875 
z
" id="DejaVuSans-32"/>
      </defs>
      <g transform="translate(519.96197 655.398438)scale(0.1 -0.1)">
       <use transform="translate(0 0.765625)" xlink:href="#DejaVuSans-31"/>
       <use transform="translate(63.623047 0.765625)" xlink:href="#DejaVuSans-30"/>
       <use transform="translate(128.203125 39.046875)scale(0.7)" xlink:href="#DejaVuSans-32"/>
      </g>
     </g>
    </g>
    <g id="xtick_2">
     <g id="line2d_3">
      <path clip-path="url(#pd458505897)" d="M 903.233865 640.8 
L 903.233865 86.4 
" style="fill:none;stroke:#b0b0b0;stroke-linecap:square;stroke-width:0.8;"/>
     </g>
     <g id="line2d_4">
      <g>
       <use style="stroke:#000000;stroke-width:0.8;" x="903.233865" xlink:href="#mcae589ff12" y="640.8"/>
      </g>
     </g>
     <g id="text_2">
      <!-- $\mathdefault{10^{3}}$ -->
      <defs>
       <path d="M 40.578125 39.3125 
Q 47.65625 37.796875 51.625 33 
Q 55.609375 28.21875 55.609375 21.1875 
Q 55.609375 10.40625 48.1875 4.484375 
Q 40.765625 -1.421875 27.09375 -1.421875 
Q 22.515625 -1.421875 17.65625 -0.515625 
Q 12.796875 0.390625 7.625 2.203125 
L 7.625 11.71875 
Q 11.71875 9.328125 16.59375 8.109375 
Q 21.484375 6.890625 26.8125 6.890625 
Q 36.078125 6.890625 40.9375 10.546875 
Q 45.796875 14.203125 45.796875 21.1875 
Q 45.796875 27.640625 41.28125 31.265625 
Q 36.765625 34.90625 28.71875 34.90625 
L 20.21875 34.90625 
L 20.21875 43.015625 
L 29.109375 43.015625 
Q 36.375 43.015625 40.234375 45.921875 
Q 44.09375 48.828125 44.09375 54.296875 
Q 44.09375 59.90625 40.109375 62.90625 
Q 36.140625 65.921875 28.71875 65.921875 
Q 24.65625 65.921875 20.015625 65.03125 
Q 15.375 64.15625 9.8125 62.3125 
L 9.8125 71.09375 
Q 15.4375 72.65625 20.34375 73.4375 
Q 25.25 74.21875 29.59375 74.21875 
Q 40.828125 74.21875 47.359375 69.109375 
Q 53.90625 64.015625 53.90625 55.328125 
Q 53.90625 49.265625 50.4375 45.09375 
Q 46.96875 40.921875 40.578125 39.3125 
z
" id="DejaVuSans-33"/>
      </defs>
      <g transform="translate(894.433865 655.398438)scale(0.1 -0.1)">
       <use transform="translate(0 0.765625)" xlink:href="#DejaVuSans-31"/>
       <use transform="translate(63.623047 0.765625)" xlink:href="#DejaVuSans-30"/>
       <use transform="translate(128.203125 39.046875)scale(0.7)" xlink:href="#DejaVuSans-33"/>
      </g>
     </g>
    </g>
    <g id="xtick_3">
     <g id="line2d_5">
      <path clip-path="url(#pd458505897)" d="M 1277.705759 640.8 
L 1277.705759 86.4 
" style="fill:none;stroke:#b0b0b0;stroke-linecap:square;stroke-width:0.8;"/>
     </g>
     <g id="line2d_6">
      <g>
       <use style="stroke:#000000;stroke-width:0.8;" x="1277.705759" xlink:href="#mcae589ff12" y="640.8"/>
      </g>
     </g>
     <g id="text_3">
      <!-- $\mathdefault{10^{4}}$ -->
      <defs>
       <path d="M 37.796875 64.3125 
L 12.890625 25.390625 
L 37.796875 25.390625 
z
M 35.203125 72.90625 
L 47.609375 72.90625 
L 47.609375 25.390625 
L 58.015625 25.390625 
L 58.015625 17.1875 
L 47.609375 17.1875 
L 47.609375 0 
L 37.796875 0 
L 37.796875 17.1875 
L 4.890625 17.1875 
L 4.890625 26.703125 
z
" id="DejaVuSans-34"/>
      </defs>
      <g transform="translate(1268.905759 655.398438)scale(0.1 -0.1)">
       <use transform="translate(0 0.684375)" xlink:href="#DejaVuSans-31"/>
       <use transform="translate(63.623047 0.684375)" xlink:href="#DejaVuSans-30"/>
       <use transform="translate(128.203125 38.965625)scale(0.7)" xlink:href="#DejaVuSans-34"/>
      </g>
     </g>
    </g>
    <g id="xtick_4">
     <g id="line2d_7">
      <defs>
       <path d="M 0 0 
L 0 2 
" id="m0af7fb6991" style="stroke:#000000;stroke-width:0.6;"/>
      </defs>
      <g>
       <use style="stroke:#000000;stroke-width:0.6;" x="267.017349" xlink:href="#m0af7fb6991" y="640.8"/>
      </g>
     </g>
    </g>
    <g id="xtick_5">
     <g id="line2d_8">
      <g>
       <use style="stroke:#000000;stroke-width:0.6;" x="332.958576" xlink:href="#m0af7fb6991" y="640.8"/>
      </g>
     </g>
    </g>
    <g id="xtick_6">
     <g id="line2d_9">
      <g>
       <use style="stroke:#000000;stroke-width:0.6;" x="379.744622" xlink:href="#m0af7fb6991" y="640.8"/>
      </g>
     </g>
    </g>
    <g id="xtick_7">
     <g id="line2d_10">
      <g>
       <use style="stroke:#000000;stroke-width:0.6;" x="416.034698" xlink:href="#m0af7fb6991" y="640.8"/>
      </g>
     </g>
    </g>
    <g id="xtick_8">
     <g id="line2d_11">
      <g>
       <use style="stroke:#000000;stroke-width:0.6;" x="445.685849" xlink:href="#m0af7fb6991" y="640.8"/>
      </g>
     </g>
    </g>
    <g id="xtick_9">
     <g id="line2d_12">
      <g>
       <use style="stroke:#000000;stroke-width:0.6;" x="470.75554" xlink:href="#m0af7fb6991" y="640.8"/>
      </g>
     </g>
    </g>
    <g id="xtick_10">
     <g id="line2d_13">
      <g>
       <use style="stroke:#000000;stroke-width:0.6;" x="492.471894" xlink:href="#m0af7fb6991" y="640.8"/>
      </g>
     </g>
    </g>
    <g id="xtick_11">
     <g id="line2d_14">
      <g>
       <use style="stroke:#000000;stroke-width:0.6;" x="511.627076" xlink:href="#m0af7fb6991" y="640.8"/>
      </g>
     </g>
    </g>
    <g id="xtick_12">
     <g id="line2d_15">
      <g>
       <use style="stroke:#000000;stroke-width:0.6;" x="641.489243" xlink:href="#m0af7fb6991" y="640.8"/>
      </g>
     </g>
    </g>
    <g id="xtick_13">
     <g id="line2d_16">
      <g>
       <use style="stroke:#000000;stroke-width:0.6;" x="707.430471" xlink:href="#m0af7fb6991" y="640.8"/>
      </g>
     </g>
    </g>
    <g id="xtick_14">
     <g id="line2d_17">
      <g>
       <use style="stroke:#000000;stroke-width:0.6;" x="754.216516" xlink:href="#m0af7fb6991" y="640.8"/>
      </g>
     </g>
    </g>
    <g id="xtick_15">
     <g id="line2d_18">
      <g>
       <use style="stroke:#000000;stroke-width:0.6;" x="790.506592" xlink:href="#m0af7fb6991" y="640.8"/>
      </g>
     </g>
    </g>
    <g id="xtick_16">
     <g id="line2d_19">
      <g>
       <use style="stroke:#000000;stroke-width:0.6;" x="820.157743" xlink:href="#m0af7fb6991" y="640.8"/>
      </g>
     </g>
    </g>
    <g id="xtick_17">
     <g id="line2d_20">
      <g>
       <use style="stroke:#000000;stroke-width:0.6;" x="845.227434" xlink:href="#m0af7fb6991" y="640.8"/>
      </g>
     </g>
    </g>
    <g id="xtick_18">
     <g id="line2d_21">
      <g>
       <use style="stroke:#000000;stroke-width:0.6;" x="866.943789" xlink:href="#m0af7fb6991" y="640.8"/>
      </g>
     </g>
    </g>
    <g id="xtick_19">
     <g id="line2d_22">
      <g>
       <use style="stroke:#000000;stroke-width:0.6;" x="886.098971" xlink:href="#m0af7fb6991" y="640.8"/>
      </g>
     </g>
    </g>
    <g id="xtick_20">
     <g id="line2d_23">
      <g>
       <use style="stroke:#000000;stroke-width:0.6;" x="1015.961138" xlink:href="#m0af7fb6991" y="640.8"/>
      </g>
     </g>
    </g>
    <g id="xtick_21">
     <g id="line2d_24">
      <g>
       <use style="stroke:#000000;stroke-width:0.6;" x="1081.902365" xlink:href="#m0af7fb6991" y="640.8"/>
      </g>
     </g>
    </g>
    <g id="xtick_22">
     <g id="line2d_25">
      <g>
       <use style="stroke:#000000;stroke-width:0.6;" x="1128.68841" xlink:href="#m0af7fb6991" y="640.8"/>
      </g>
     </g>
    </g>
    <g id="xtick_23">
     <g id="line2d_26">
      <g>
       <use style="stroke:#000000;stroke-width:0.6;" x="1164.978486" xlink:href="#m0af7fb6991" y="640.8"/>
      </g>
     </g>
    </g>
    <g id="xtick_24">
     <g id="line2d_27">
      <g>
       <use style="stroke:#000000;stroke-width:0.6;" x="1194.629638" xlink:href="#m0af7fb6991" y="640.8"/>
      </g>
     </g>
    </g>
    <g id="xtick_25">
     <g id="line2d_28">
      <g>
       <use style="stroke:#000000;stroke-width:0.6;" x="1219.699329" xlink:href="#m0af7fb6991" y="640.8"/>
      </g>
     </g>
    </g>
    <g id="xtick_26">
     <g id="line2d_29">
      <g>
       <use style="stroke:#000000;stroke-width:0.6;" x="1241.415683" xlink:href="#m0af7fb6991" y="640.8"/>
      </g>
     </g>
    </g>
    <g id="xtick_27">
     <g id="line2d_30">
      <g>
       <use style="stroke:#000000;stroke-width:0.6;" x="1260.570865" xlink:href="#m0af7fb6991" y="640.8"/>
      </g>
     </g>
    </g>
    <g id="text_4">
     <!-- Tamaño de la matriz -->
     <defs>
      <path d="M -0.296875 72.90625 
L 61.375 72.90625 
L 61.375 64.59375 
L 35.5 64.59375 
L 35.5 0 
L 25.59375 0 
L 25.59375 64.59375 
L -0.296875 64.59375 
z
" id="DejaVuSans-54"/>
      <path d="M 34.28125 27.484375 
Q 23.390625 27.484375 19.1875 25 
Q 14.984375 22.515625 14.984375 16.5 
Q 14.984375 11.71875 18.140625 8.90625 
Q 21.296875 6.109375 26.703125 6.109375 
Q 34.1875 6.109375 38.703125 11.40625 
Q 43.21875 16.703125 43.21875 25.484375 
L 43.21875 27.484375 
z
M 52.203125 31.203125 
L 52.203125 0 
L 43.21875 0 
L 43.21875 8.296875 
Q 40.140625 3.328125 35.546875 0.953125 
Q 30.953125 -1.421875 24.3125 -1.421875 
Q 15.921875 -1.421875 10.953125 3.296875 
Q 6 8.015625 6 15.921875 
Q 6 25.140625 12.171875 29.828125 
Q 18.359375 34.515625 30.609375 34.515625 
L 43.21875 34.515625 
L 43.21875 35.40625 
Q 43.21875 41.609375 39.140625 45 
Q 35.0625 48.390625 27.6875 48.390625 
Q 23 48.390625 18.546875 47.265625 
Q 14.109375 46.140625 10.015625 43.890625 
L 10.015625 52.203125 
Q 14.9375 54.109375 19.578125 55.046875 
Q 24.21875 56 28.609375 56 
Q 40.484375 56 46.34375 49.84375 
Q 52.203125 43.703125 52.203125 31.203125 
z
" id="DejaVuSans-61"/>
      <path d="M 52 44.1875 
Q 55.375 50.25 60.0625 53.125 
Q 64.75 56 71.09375 56 
Q 79.640625 56 84.28125 50.015625 
Q 88.921875 44.046875 88.921875 33.015625 
L 88.921875 0 
L 79.890625 0 
L 79.890625 32.71875 
Q 79.890625 40.578125 77.09375 44.375 
Q 74.3125 48.1875 68.609375 48.1875 
Q 61.625 48.1875 57.5625 43.546875 
Q 53.515625 38.921875 53.515625 30.90625 
L 53.515625 0 
L 44.484375 0 
L 44.484375 32.71875 
Q 44.484375 40.625 41.703125 44.40625 
Q 38.921875 48.1875 33.109375 48.1875 
Q 26.21875 48.1875 22.15625 43.53125 
Q 18.109375 38.875 18.109375 30.90625 
L 18.109375 0 
L 9.078125 0 
L 9.078125 54.6875 
L 18.109375 54.6875 
L 18.109375 46.1875 
Q 21.1875 51.21875 25.484375 53.609375 
Q 29.78125 56 35.6875 56 
Q 41.65625 56 45.828125 52.96875 
Q 50 49.953125 52 44.1875 
z
" id="DejaVuSans-6d"/>
      <path d="M 54.890625 33.015625 
L 54.890625 0 
L 45.90625 0 
L 45.90625 32.71875 
Q 45.90625 40.484375 42.875 44.328125 
Q 39.84375 48.1875 33.796875 48.1875 
Q 26.515625 48.1875 22.3125 43.546875 
Q 18.109375 38.921875 18.109375 30.90625 
L 18.109375 0 
L 9.078125 0 
L 9.078125 54.6875 
L 18.109375 54.6875 
L 18.109375 46.1875 
Q 21.34375 51.125 25.703125 53.5625 
Q 30.078125 56 35.796875 56 
Q 45.21875 56 50.046875 50.171875 
Q 54.890625 44.34375 54.890625 33.015625 
z
M 32.1875 66.890625 
L 29.390625 69.578125 
Q 28.328125 70.5625 27.515625 71.015625 
Q 26.71875 71.484375 26.078125 71.484375 
Q 24.21875 71.484375 23.34375 69.703125 
Q 22.46875 67.921875 22.359375 63.921875 
L 16.265625 63.921875 
Q 16.359375 70.515625 18.84375 74.09375 
Q 21.34375 77.6875 25.78125 77.6875 
Q 27.640625 77.6875 29.203125 77 
Q 30.765625 76.3125 32.578125 74.703125 
L 35.359375 72.015625 
Q 36.421875 71.046875 37.234375 70.578125 
Q 38.046875 70.125 38.671875 70.125 
Q 40.53125 70.125 41.40625 71.90625 
Q 42.28125 73.6875 42.390625 77.6875 
L 48.484375 77.6875 
Q 48.390625 71.09375 45.890625 67.5 
Q 43.40625 63.921875 38.96875 63.921875 
Q 37.109375 63.921875 35.546875 64.59375 
Q 33.984375 65.28125 32.1875 66.890625 
z
" id="DejaVuSans-f1"/>
      <path d="M 30.609375 48.390625 
Q 23.390625 48.390625 19.1875 42.75 
Q 14.984375 37.109375 14.984375 27.296875 
Q 14.984375 17.484375 19.15625 11.84375 
Q 23.34375 6.203125 30.609375 6.203125 
Q 37.796875 6.203125 41.984375 11.859375 
Q 46.1875 17.53125 46.1875 27.296875 
Q 46.1875 37.015625 41.984375 42.703125 
Q 37.796875 48.390625 30.609375 48.390625 
z
M 30.609375 56 
Q 42.328125 56 49.015625 48.375 
Q 55.71875 40.765625 55.71875 27.296875 
Q 55.71875 13.875 49.015625 6.21875 
Q 42.328125 -1.421875 30.609375 -1.421875 
Q 18.84375 -1.421875 12.171875 6.21875 
Q 5.515625 13.875 5.515625 27.296875 
Q 5.515625 40.765625 12.171875 48.375 
Q 18.84375 56 30.609375 56 
z
" id="DejaVuSans-6f"/>
      <path id="DejaVuSans-20"/>
      <path d="M 45.40625 46.390625 
L 45.40625 75.984375 
L 54.390625 75.984375 
L 54.390625 0 
L 45.40625 0 
L 45.40625 8.203125 
Q 42.578125 3.328125 38.25 0.953125 
Q 33.9375 -1.421875 27.875 -1.421875 
Q 17.96875 -1.421875 11.734375 6.484375 
Q 5.515625 14.40625 5.515625 27.296875 
Q 5.515625 40.1875 11.734375 48.09375 
Q 17.96875 56 27.875 56 
Q 33.9375 56 38.25 53.625 
Q 42.578125 51.265625 45.40625 46.390625 
z
M 14.796875 27.296875 
Q 14.796875 17.390625 18.875 11.75 
Q 22.953125 6.109375 30.078125 6.109375 
Q 37.203125 6.109375 41.296875 11.75 
Q 45.40625 17.390625 45.40625 27.296875 
Q 45.40625 37.203125 41.296875 42.84375 
Q 37.203125 48.484375 30.078125 48.484375 
Q 22.953125 48.484375 18.875 42.84375 
Q 14.796875 37.203125 14.796875 27.296875 
z
" id="DejaVuSans-64"/>
      <path d="M 56.203125 29.59375 
L 56.203125 25.203125 
L 14.890625 25.203125 
Q 15.484375 15.921875 20.484375 11.0625 
Q 25.484375 6.203125 34.421875 6.203125 
Q 39.59375 6.203125 44.453125 7.46875 
Q 49.3125 8.734375 54.109375 11.28125 
L 54.109375 2.78125 
Q 49.265625 0.734375 44.1875 -0.34375 
Q 39.109375 -1.421875 33.890625 -1.421875 
Q 20.796875 -1.421875 13.15625 6.1875 
Q 5.515625 13.8125 5.515625 26.8125 
Q 5.515625 40.234375 12.765625 48.109375 
Q 20.015625 56 32.328125 56 
Q 43.359375 56 49.78125 48.890625 
Q 56.203125 41.796875 56.203125 29.59375 
z
M 47.21875 32.234375 
Q 47.125 39.59375 43.09375 43.984375 
Q 39.0625 48.390625 32.421875 48.390625 
Q 24.90625 48.390625 20.390625 44.140625 
Q 15.875 39.890625 15.1875 32.171875 
z
" id="DejaVuSans-65"/>
      <path d="M 9.421875 75.984375 
L 18.40625 75.984375 
L 18.40625 0 
L 9.421875 0 
z
" id="DejaVuSans-6c"/>
      <path d="M 18.3125 70.21875 
L 18.3125 54.6875 
L 36.8125 54.6875 
L 36.8125 47.703125 
L 18.3125 47.703125 
L 18.3125 18.015625 
Q 18.3125 11.328125 20.140625 9.421875 
Q 21.96875 7.515625 27.59375 7.515625 
L 36.8125 7.515625 
L 36.8125 0 
L 27.59375 0 
Q 17.1875 0 13.234375 3.875 
Q 9.28125 7.765625 9.28125 18.015625 
L 9.28125 47.703125 
L 2.6875 47.703125 
L 2.6875 54.6875 
L 9.28125 54.6875 
L 9.28125 70.21875 
z
" id="DejaVuSans-74"/>
      <path d="M 41.109375 46.296875 
Q 39.59375 47.171875 37.8125 47.578125 
Q 36.03125 48 33.890625 48 
Q 26.265625 48 22.1875 43.046875 
Q 18.109375 38.09375 18.109375 28.8125 
L 18.109375 0 
L 9.078125 0 
L 9.078125 54.6875 
L 18.109375 54.6875 
L 18.109375 46.1875 
Q 20.953125 51.171875 25.484375 53.578125 
Q 30.03125 56 36.53125 56 
Q 37.453125 56 38.578125 55.875 
Q 39.703125 55.765625 41.0625 55.515625 
z
" id="DejaVuSans-72"/>
      <path d="M 9.421875 54.6875 
L 18.40625 54.6875 
L 18.40625 0 
L 9.421875 0 
z
M 9.421875 75.984375 
L 18.40625 75.984375 
L 18.40625 64.59375 
L 9.421875 64.59375 
z
" id="DejaVuSans-69"/>
      <path d="M 5.515625 54.6875 
L 48.1875 54.6875 
L 48.1875 46.484375 
L 14.40625 7.171875 
L 48.1875 7.171875 
L 48.1875 0 
L 4.296875 0 
L 4.296875 8.203125 
L 38.09375 47.515625 
L 5.515625 47.515625 
z
" id="DejaVuSans-7a"/>
     </defs>
     <g transform="translate(686.297656 669.076563)scale(0.1 -0.1)">
      <use xlink:href="#DejaVuSans-54"/>
      <use x="60.833984" xlink:href="#DejaVuSans-61"/>
      <use x="122.113281" xlink:href="#DejaVuSans-6d"/>
      <use x="219.525391" xlink:href="#DejaVuSans-61"/>
      <use x="280.804688" xlink:href="#DejaVuSans-f1"/>
      <use x="344.183594" xlink:href="#DejaVuSans-6f"/>
      <use x="405.365234" xlink:href="#DejaVuSans-20"/>
      <use x="437.152344" xlink:href="#DejaVuSans-64"/>
      <use x="500.628906" xlink:href="#DejaVuSans-65"/>
      <use x="562.152344" xlink:href="#DejaVuSans-20"/>
      <use x="593.939453" xlink:href="#DejaVuSans-6c"/>
      <use x="621.722656" xlink:href="#DejaVuSans-61"/>
      <use x="683.001953" xlink:href="#DejaVuSans-20"/>
      <use x="714.789062" xlink:href="#DejaVuSans-6d"/>
      <use x="812.201172" xlink:href="#DejaVuSans-61"/>
      <use x="873.480469" xlink:href="#DejaVuSans-74"/>
      <use x="912.689453" xlink:href="#DejaVuSans-72"/>
      <use x="953.802734" xlink:href="#DejaVuSans-69"/>
      <use x="981.585938" xlink:href="#DejaVuSans-7a"/>
     </g>
    </g>
   </g>
   <g id="matplotlib.axis_2">
    <g id="ytick_1">
     <g id="line2d_31">
      <path clip-path="url(#pd458505897)" d="M 180 612.309985 
L 1296 612.309985 
" style="fill:none;stroke:#b0b0b0;stroke-linecap:square;stroke-width:0.8;"/>
     </g>
     <g id="line2d_32">
      <defs>
       <path d="M 0 0 
L -3.5 0 
" id="m12f42d5e7a" style="stroke:#000000;stroke-width:0.8;"/>
      </defs>
      <g>
       <use style="stroke:#000000;stroke-width:0.8;" x="180" xlink:href="#m12f42d5e7a" y="612.309985"/>
      </g>
     </g>
     <g id="text_5">
      <!-- $\mathdefault{10^{1}}$ -->
      <g transform="translate(155.4 616.109204)scale(0.1 -0.1)">
       <use transform="translate(0 0.684375)" xlink:href="#DejaVuSans-31"/>
       <use transform="translate(63.623047 0.684375)" xlink:href="#DejaVuSans-30"/>
       <use transform="translate(128.203125 38.965625)scale(0.7)" xlink:href="#DejaVuSans-31"/>
      </g>
     </g>
    </g>
    <g id="ytick_2">
     <g id="line2d_33">
      <path clip-path="url(#pd458505897)" d="M 180 540.408858 
L 1296 540.408858 
" style="fill:none;stroke:#b0b0b0;stroke-linecap:square;stroke-width:0.8;"/>
     </g>
     <g id="line2d_34">
      <g>
       <use style="stroke:#000000;stroke-width:0.8;" x="180" xlink:href="#m12f42d5e7a" y="540.408858"/>
      </g>
     </g>
     <g id="text_6">
      <!-- $\mathdefault{10^{2}}$ -->
      <g transform="translate(155.4 544.208077)scale(0.1 -0.1)">
       <use transform="translate(0 0.765625)" xlink:href="#DejaVuSans-31"/>
       <use transform="translate(63.623047 0.765625)" xlink:href="#DejaVuSans-30"/>
       <use transform="translate(128.203125 39.046875)scale(0.7)" xlink:href="#DejaVuSans-32"/>
      </g>
     </g>
    </g>
    <g id="ytick_3">
     <g id="line2d_35">
      <path clip-path="url(#pd458505897)" d="M 180 468.507731 
L 1296 468.507731 
" style="fill:none;stroke:#b0b0b0;stroke-linecap:square;stroke-width:0.8;"/>
     </g>
     <g id="line2d_36">
      <g>
       <use style="stroke:#000000;stroke-width:0.8;" x="180" xlink:href="#m12f42d5e7a" y="468.507731"/>
      </g>
     </g>
     <g id="text_7">
      <!-- $\mathdefault{10^{3}}$ -->
      <g transform="translate(155.4 472.30695)scale(0.1 -0.1)">
       <use transform="translate(0 0.765625)" xlink:href="#DejaVuSans-31"/>
       <use transform="translate(63.623047 0.765625)" xlink:href="#DejaVuSans-30"/>
       <use transform="translate(128.203125 39.046875)scale(0.7)" xlink:href="#DejaVuSans-33"/>
      </g>
     </g>
    </g>
    <g id="ytick_4">
     <g id="line2d_37">
      <path clip-path="url(#pd458505897)" d="M 180 396.606604 
L 1296 396.606604 
" style="fill:none;stroke:#b0b0b0;stroke-linecap:square;stroke-width:0.8;"/>
     </g>
     <g id="line2d_38">
      <g>
       <use style="stroke:#000000;stroke-width:0.8;" x="180" xlink:href="#m12f42d5e7a" y="396.606604"/>
      </g>
     </g>
     <g id="text_8">
      <!-- $\mathdefault{10^{4}}$ -->
      <g transform="translate(155.4 400.405822)scale(0.1 -0.1)">
       <use transform="translate(0 0.684375)" xlink:href="#DejaVuSans-31"/>
       <use transform="translate(63.623047 0.684375)" xlink:href="#DejaVuSans-30"/>
       <use transform="translate(128.203125 38.965625)scale(0.7)" xlink:href="#DejaVuSans-34"/>
      </g>
     </g>
    </g>
    <g id="ytick_5">
     <g id="line2d_39">
      <path clip-path="url(#pd458505897)" d="M 180 324.705477 
L 1296 324.705477 
" style="fill:none;stroke:#b0b0b0;stroke-linecap:square;stroke-width:0.8;"/>
     </g>
     <g id="line2d_40">
      <g>
       <use style="stroke:#000000;stroke-width:0.8;" x="180" xlink:href="#m12f42d5e7a" y="324.705477"/>
      </g>
     </g>
     <g id="text_9">
      <!-- $\mathdefault{10^{5}}$ -->
      <defs>
       <path d="M 10.796875 72.90625 
L 49.515625 72.90625 
L 49.515625 64.59375 
L 19.828125 64.59375 
L 19.828125 46.734375 
Q 21.96875 47.46875 24.109375 47.828125 
Q 26.265625 48.1875 28.421875 48.1875 
Q 40.625 48.1875 47.75 41.5 
Q 54.890625 34.8125 54.890625 23.390625 
Q 54.890625 11.625 47.5625 5.09375 
Q 40.234375 -1.421875 26.90625 -1.421875 
Q 22.3125 -1.421875 17.546875 -0.640625 
Q 12.796875 0.140625 7.71875 1.703125 
L 7.71875 11.625 
Q 12.109375 9.234375 16.796875 8.0625 
Q 21.484375 6.890625 26.703125 6.890625 
Q 35.15625 6.890625 40.078125 11.328125 
Q 45.015625 15.765625 45.015625 23.390625 
Q 45.015625 31 40.078125 35.4375 
Q 35.15625 39.890625 26.703125 39.890625 
Q 22.75 39.890625 18.8125 39.015625 
Q 14.890625 38.140625 10.796875 36.28125 
z
" id="DejaVuSans-35"/>
      </defs>
      <g transform="translate(155.4 328.504695)scale(0.1 -0.1)">
       <use transform="translate(0 0.684375)" xlink:href="#DejaVuSans-31"/>
       <use transform="translate(63.623047 0.684375)" xlink:href="#DejaVuSans-30"/>
       <use transform="translate(128.203125 38.965625)scale(0.7)" xlink:href="#DejaVuSans-35"/>
      </g>
     </g>
    </g>
    <g id="ytick_6">
     <g id="line2d_41">
      <path clip-path="url(#pd458505897)" d="M 180 252.80435 
L 1296 252.80435 
" style="fill:none;stroke:#b0b0b0;stroke-linecap:square;stroke-width:0.8;"/>
     </g>
     <g id="line2d_42">
      <g>
       <use style="stroke:#000000;stroke-width:0.8;" x="180" xlink:href="#m12f42d5e7a" y="252.80435"/>
      </g>
     </g>
     <g id="text_10">
      <!-- $\mathdefault{10^{6}}$ -->
      <defs>
       <path d="M 33.015625 40.375 
Q 26.375 40.375 22.484375 35.828125 
Q 18.609375 31.296875 18.609375 23.390625 
Q 18.609375 15.53125 22.484375 10.953125 
Q 26.375 6.390625 33.015625 6.390625 
Q 39.65625 6.390625 43.53125 10.953125 
Q 47.40625 15.53125 47.40625 23.390625 
Q 47.40625 31.296875 43.53125 35.828125 
Q 39.65625 40.375 33.015625 40.375 
z
M 52.59375 71.296875 
L 52.59375 62.3125 
Q 48.875 64.0625 45.09375 64.984375 
Q 41.3125 65.921875 37.59375 65.921875 
Q 27.828125 65.921875 22.671875 59.328125 
Q 17.53125 52.734375 16.796875 39.40625 
Q 19.671875 43.65625 24.015625 45.921875 
Q 28.375 48.1875 33.59375 48.1875 
Q 44.578125 48.1875 50.953125 41.515625 
Q 57.328125 34.859375 57.328125 23.390625 
Q 57.328125 12.15625 50.6875 5.359375 
Q 44.046875 -1.421875 33.015625 -1.421875 
Q 20.359375 -1.421875 13.671875 8.265625 
Q 6.984375 17.96875 6.984375 36.375 
Q 6.984375 53.65625 15.1875 63.9375 
Q 23.390625 74.21875 37.203125 74.21875 
Q 40.921875 74.21875 44.703125 73.484375 
Q 48.484375 72.75 52.59375 71.296875 
z
" id="DejaVuSans-36"/>
      </defs>
      <g transform="translate(155.4 256.603568)scale(0.1 -0.1)">
       <use transform="translate(0 0.765625)" xlink:href="#DejaVuSans-31"/>
       <use transform="translate(63.623047 0.765625)" xlink:href="#DejaVuSans-30"/>
       <use transform="translate(128.203125 39.046875)scale(0.7)" xlink:href="#DejaVuSans-36"/>
      </g>
     </g>
    </g>
    <g id="ytick_7">
     <g id="line2d_43">
      <path clip-path="url(#pd458505897)" d="M 180 180.903223 
L 1296 180.903223 
" style="fill:none;stroke:#b0b0b0;stroke-linecap:square;stroke-width:0.8;"/>
     </g>
     <g id="line2d_44">
      <g>
       <use style="stroke:#000000;stroke-width:0.8;" x="180" xlink:href="#m12f42d5e7a" y="180.903223"/>
      </g>
     </g>
     <g id="text_11">
      <!-- $\mathdefault{10^{7}}$ -->
      <defs>
       <path d="M 8.203125 72.90625 
L 55.078125 72.90625 
L 55.078125 68.703125 
L 28.609375 0 
L 18.3125 0 
L 43.21875 64.59375 
L 8.203125 64.59375 
z
" id="DejaVuSans-37"/>
      </defs>
      <g transform="translate(155.4 184.702441)scale(0.1 -0.1)">
       <use transform="translate(0 0.684375)" xlink:href="#DejaVuSans-31"/>
       <use transform="translate(63.623047 0.684375)" xlink:href="#DejaVuSans-30"/>
       <use transform="translate(128.203125 38.965625)scale(0.7)" xlink:href="#DejaVuSans-37"/>
      </g>
     </g>
    </g>
    <g id="ytick_8">
     <g id="line2d_45">
      <path clip-path="url(#pd458505897)" d="M 180 109.002096 
L 1296 109.002096 
" style="fill:none;stroke:#b0b0b0;stroke-linecap:square;stroke-width:0.8;"/>
     </g>
     <g id="line2d_46">
      <g>
       <use style="stroke:#000000;stroke-width:0.8;" x="180" xlink:href="#m12f42d5e7a" y="109.002096"/>
      </g>
     </g>
     <g id="text_12">
      <!-- $\mathdefault{10^{8}}$ -->
      <defs>
       <path d="M 31.78125 34.625 
Q 24.75 34.625 20.71875 30.859375 
Q 16.703125 27.09375 16.703125 20.515625 
Q 16.703125 13.921875 20.71875 10.15625 
Q 24.75 6.390625 31.78125 6.390625 
Q 38.8125 6.390625 42.859375 10.171875 
Q 46.921875 13.96875 46.921875 20.515625 
Q 46.921875 27.09375 42.890625 30.859375 
Q 38.875 34.625 31.78125 34.625 
z
M 21.921875 38.8125 
Q 15.578125 40.375 12.03125 44.71875 
Q 8.5 49.078125 8.5 55.328125 
Q 8.5 64.0625 14.71875 69.140625 
Q 20.953125 74.21875 31.78125 74.21875 
Q 42.671875 74.21875 48.875 69.140625 
Q 55.078125 64.0625 55.078125 55.328125 
Q 55.078125 49.078125 51.53125 44.71875 
Q 48 40.375 41.703125 38.8125 
Q 48.828125 37.15625 52.796875 32.3125 
Q 56.78125 27.484375 56.78125 20.515625 
Q 56.78125 9.90625 50.3125 4.234375 
Q 43.84375 -1.421875 31.78125 -1.421875 
Q 19.734375 -1.421875 13.25 4.234375 
Q 6.78125 9.90625 6.78125 20.515625 
Q 6.78125 27.484375 10.78125 32.3125 
Q 14.796875 37.15625 21.921875 38.8125 
z
M 18.3125 54.390625 
Q 18.3125 48.734375 21.84375 45.5625 
Q 25.390625 42.390625 31.78125 42.390625 
Q 38.140625 42.390625 41.71875 45.5625 
Q 45.3125 48.734375 45.3125 54.390625 
Q 45.3125 60.0625 41.71875 63.234375 
Q 38.140625 66.40625 31.78125 66.40625 
Q 25.390625 66.40625 21.84375 63.234375 
Q 18.3125 60.0625 18.3125 54.390625 
z
" id="DejaVuSans-38"/>
      </defs>
      <g transform="translate(155.4 112.801314)scale(0.1 -0.1)">
       <use transform="translate(0 0.765625)" xlink:href="#DejaVuSans-31"/>
       <use transform="translate(63.623047 0.765625)" xlink:href="#DejaVuSans-30"/>
       <use transform="translate(128.203125 39.046875)scale(0.7)" xlink:href="#DejaVuSans-38"/>
      </g>
     </g>
    </g>
    <g id="ytick_9">
     <g id="line2d_47">
      <defs>
       <path d="M 0 0 
L -2 0 
" id="m85d83ec870" style="stroke:#000000;stroke-width:0.6;"/>
      </defs>
      <g>
       <use style="stroke:#000000;stroke-width:0.6;" x="180" xlink:href="#m85d83ec870" y="640.92232"/>
      </g>
     </g>
    </g>
    <g id="ytick_10">
     <g id="line2d_48">
      <g>
       <use style="stroke:#000000;stroke-width:0.6;" x="180" xlink:href="#m85d83ec870" y="633.954381"/>
      </g>
     </g>
    </g>
    <g id="ytick_11">
     <g id="line2d_49">
      <g>
       <use style="stroke:#000000;stroke-width:0.6;" x="180" xlink:href="#m85d83ec870" y="628.26116"/>
      </g>
     </g>
    </g>
    <g id="ytick_12">
     <g id="line2d_50">
      <g>
       <use style="stroke:#000000;stroke-width:0.6;" x="180" xlink:href="#m85d83ec870" y="623.44761"/>
      </g>
     </g>
    </g>
    <g id="ytick_13">
     <g id="line2d_51">
      <g>
       <use style="stroke:#000000;stroke-width:0.6;" x="180" xlink:href="#m85d83ec870" y="619.277924"/>
      </g>
     </g>
    </g>
    <g id="ytick_14">
     <g id="line2d_52">
      <g>
       <use style="stroke:#000000;stroke-width:0.6;" x="180" xlink:href="#m85d83ec870" y="615.6"/>
      </g>
     </g>
    </g>
    <g id="ytick_15">
     <g id="line2d_53">
      <g>
       <use style="stroke:#000000;stroke-width:0.6;" x="180" xlink:href="#m85d83ec870" y="590.665589"/>
      </g>
     </g>
    </g>
    <g id="ytick_16">
     <g id="line2d_54">
      <g>
       <use style="stroke:#000000;stroke-width:0.6;" x="180" xlink:href="#m85d83ec870" y="578.004429"/>
      </g>
     </g>
    </g>
    <g id="ytick_17">
     <g id="line2d_55">
      <g>
       <use style="stroke:#000000;stroke-width:0.6;" x="180" xlink:href="#m85d83ec870" y="569.021193"/>
      </g>
     </g>
    </g>
    <g id="ytick_18">
     <g id="line2d_56">
      <g>
       <use style="stroke:#000000;stroke-width:0.6;" x="180" xlink:href="#m85d83ec870" y="562.053254"/>
      </g>
     </g>
    </g>
    <g id="ytick_19">
     <g id="line2d_57">
      <g>
       <use style="stroke:#000000;stroke-width:0.6;" x="180" xlink:href="#m85d83ec870" y="556.360033"/>
      </g>
     </g>
    </g>
    <g id="ytick_20">
     <g id="line2d_58">
      <g>
       <use style="stroke:#000000;stroke-width:0.6;" x="180" xlink:href="#m85d83ec870" y="551.546483"/>
      </g>
     </g>
    </g>
    <g id="ytick_21">
     <g id="line2d_59">
      <g>
       <use style="stroke:#000000;stroke-width:0.6;" x="180" xlink:href="#m85d83ec870" y="547.376797"/>
      </g>
     </g>
    </g>
    <g id="ytick_22">
     <g id="line2d_60">
      <g>
       <use style="stroke:#000000;stroke-width:0.6;" x="180" xlink:href="#m85d83ec870" y="543.698873"/>
      </g>
     </g>
    </g>
    <g id="ytick_23">
     <g id="line2d_61">
      <g>
       <use style="stroke:#000000;stroke-width:0.6;" x="180" xlink:href="#m85d83ec870" y="518.764462"/>
      </g>
     </g>
    </g>
    <g id="ytick_24">
     <g id="line2d_62">
      <g>
       <use style="stroke:#000000;stroke-width:0.6;" x="180" xlink:href="#m85d83ec870" y="506.103302"/>
      </g>
     </g>
    </g>
    <g id="ytick_25">
     <g id="line2d_63">
      <g>
       <use style="stroke:#000000;stroke-width:0.6;" x="180" xlink:href="#m85d83ec870" y="497.120066"/>
      </g>
     </g>
    </g>
    <g id="ytick_26">
     <g id="line2d_64">
      <g>
       <use style="stroke:#000000;stroke-width:0.6;" x="180" xlink:href="#m85d83ec870" y="490.152127"/>
      </g>
     </g>
    </g>
    <g id="ytick_27">
     <g id="line2d_65">
      <g>
       <use style="stroke:#000000;stroke-width:0.6;" x="180" xlink:href="#m85d83ec870" y="484.458906"/>
      </g>
     </g>
    </g>
    <g id="ytick_28">
     <g id="line2d_66">
      <g>
       <use style="stroke:#000000;stroke-width:0.6;" x="180" xlink:href="#m85d83ec870" y="479.645356"/>
      </g>
     </g>
    </g>
    <g id="ytick_29">
     <g id="line2d_67">
      <g>
       <use style="stroke:#000000;stroke-width:0.6;" x="180" xlink:href="#m85d83ec870" y="475.47567"/>
      </g>
     </g>
    </g>
    <g id="ytick_30">
     <g id="line2d_68">
      <g>
       <use style="stroke:#000000;stroke-width:0.6;" x="180" xlink:href="#m85d83ec870" y="471.797746"/>
      </g>
     </g>
    </g>
    <g id="ytick_31">
     <g id="line2d_69">
      <g>
       <use style="stroke:#000000;stroke-width:0.6;" x="180" xlink:href="#m85d83ec870" y="446.863335"/>
      </g>
     </g>
    </g>
    <g id="ytick_32">
     <g id="line2d_70">
      <g>
       <use style="stroke:#000000;stroke-width:0.6;" x="180" xlink:href="#m85d83ec870" y="434.202175"/>
      </g>
     </g>
    </g>
    <g id="ytick_33">
     <g id="line2d_71">
      <g>
       <use style="stroke:#000000;stroke-width:0.6;" x="180" xlink:href="#m85d83ec870" y="425.218939"/>
      </g>
     </g>
    </g>
    <g id="ytick_34">
     <g id="line2d_72">
      <g>
       <use style="stroke:#000000;stroke-width:0.6;" x="180" xlink:href="#m85d83ec870" y="418.251"/>
      </g>
     </g>
    </g>
    <g id="ytick_35">
     <g id="line2d_73">
      <g>
       <use style="stroke:#000000;stroke-width:0.6;" x="180" xlink:href="#m85d83ec870" y="412.557779"/>
      </g>
     </g>
    </g>
    <g id="ytick_36">
     <g id="line2d_74">
      <g>
       <use style="stroke:#000000;stroke-width:0.6;" x="180" xlink:href="#m85d83ec870" y="407.744229"/>
      </g>
     </g>
    </g>
    <g id="ytick_37">
     <g id="line2d_75">
      <g>
       <use style="stroke:#000000;stroke-width:0.6;" x="180" xlink:href="#m85d83ec870" y="403.574543"/>
      </g>
     </g>
    </g>
    <g id="ytick_38">
     <g id="line2d_76">
      <g>
       <use style="stroke:#000000;stroke-width:0.6;" x="180" xlink:href="#m85d83ec870" y="399.896619"/>
      </g>
     </g>
    </g>
    <g id="ytick_39">
     <g id="line2d_77">
      <g>
       <use style="stroke:#000000;stroke-width:0.6;" x="180" xlink:href="#m85d83ec870" y="374.962208"/>
      </g>
     </g>
    </g>
    <g id="ytick_40">
     <g id="line2d_78">
      <g>
       <use style="stroke:#000000;stroke-width:0.6;" x="180" xlink:href="#m85d83ec870" y="362.301048"/>
      </g>
     </g>
    </g>
    <g id="ytick_41">
     <g id="line2d_79">
      <g>
       <use style="stroke:#000000;stroke-width:0.6;" x="180" xlink:href="#m85d83ec870" y="353.317812"/>
      </g>
     </g>
    </g>
    <g id="ytick_42">
     <g id="line2d_80">
      <g>
       <use style="stroke:#000000;stroke-width:0.6;" x="180" xlink:href="#m85d83ec870" y="346.349873"/>
      </g>
     </g>
    </g>
    <g id="ytick_43">
     <g id="line2d_81">
      <g>
       <use style="stroke:#000000;stroke-width:0.6;" x="180" xlink:href="#m85d83ec870" y="340.656652"/>
      </g>
     </g>
    </g>
    <g id="ytick_44">
     <g id="line2d_82">
      <g>
       <use style="stroke:#000000;stroke-width:0.6;" x="180" xlink:href="#m85d83ec870" y="335.843102"/>
      </g>
     </g>
    </g>
    <g id="ytick_45">
     <g id="line2d_83">
      <g>
       <use style="stroke:#000000;stroke-width:0.6;" x="180" xlink:href="#m85d83ec870" y="331.673416"/>
      </g>
     </g>
    </g>
    <g id="ytick_46">
     <g id="line2d_84">
      <g>
       <use style="stroke:#000000;stroke-width:0.6;" x="180" xlink:href="#m85d83ec870" y="327.995492"/>
      </g>
     </g>
    </g>
    <g id="ytick_47">
     <g id="line2d_85">
      <g>
       <use style="stroke:#000000;stroke-width:0.6;" x="180" xlink:href="#m85d83ec870" y="303.061081"/>
      </g>
     </g>
    </g>
    <g id="ytick_48">
     <g id="line2d_86">
      <g>
       <use style="stroke:#000000;stroke-width:0.6;" x="180" xlink:href="#m85d83ec870" y="290.399921"/>
      </g>
     </g>
    </g>
    <g id="ytick_49">
     <g id="line2d_87">
      <g>
       <use style="stroke:#000000;stroke-width:0.6;" x="180" xlink:href="#m85d83ec870" y="281.416685"/>
      </g>
     </g>
    </g>
    <g id="ytick_50">
     <g id="line2d_88">
      <g>
       <use style="stroke:#000000;stroke-width:0.6;" x="180" xlink:href="#m85d83ec870" y="274.448746"/>
      </g>
     </g>
    </g>
    <g id="ytick_51">
     <g id="line2d_89">
      <g>
       <use style="stroke:#000000;stroke-width:0.6;" x="180" xlink:href="#m85d83ec870" y="268.755525"/>
      </g>
     </g>
    </g>
    <g id="ytick_52">
     <g id="line2d_90">
      <g>
       <use style="stroke:#000000;stroke-width:0.6;" x="180" xlink:href="#m85d83ec870" y="263.941975"/>
      </g>
     </g>
    </g>
    <g id="ytick_53">
     <g id="line2d_91">
      <g>
       <use style="stroke:#000000;stroke-width:0.6;" x="180" xlink:href="#m85d83ec870" y="259.772289"/>
      </g>
     </g>
    </g>
    <g id="ytick_54">
     <g id="line2d_92">
      <g>
       <use style="stroke:#000000;stroke-width:0.6;" x="180" xlink:href="#m85d83ec870" y="256.094365"/>
      </g>
     </g>
    </g>
    <g id="ytick_55">
     <g id="line2d_93">
      <g>
       <use style="stroke:#000000;stroke-width:0.6;" x="180" xlink:href="#m85d83ec870" y="231.159954"/>
      </g>
     </g>
    </g>
    <g id="ytick_56">
     <g id="line2d_94">
      <g>
       <use style="stroke:#000000;stroke-width:0.6;" x="180" xlink:href="#m85d83ec870" y="218.498794"/>
      </g>
     </g>
    </g>
    <g id="ytick_57">
     <g id="line2d_95">
      <g>
       <use style="stroke:#000000;stroke-width:0.6;" x="180" xlink:href="#m85d83ec870" y="209.515558"/>
      </g>
     </g>
    </g>
    <g id="ytick_58">
     <g id="line2d_96">
      <g>
       <use style="stroke:#000000;stroke-width:0.6;" x="180" xlink:href="#m85d83ec870" y="202.547619"/>
      </g>
     </g>
    </g>
    <g id="ytick_59">
     <g id="line2d_97">
      <g>
       <use style="stroke:#000000;stroke-width:0.6;" x="180" xlink:href="#m85d83ec870" y="196.854398"/>
      </g>
     </g>
    </g>
    <g id="ytick_60">
     <g id="line2d_98">
      <g>
       <use style="stroke:#000000;stroke-width:0.6;" x="180" xlink:href="#m85d83ec870" y="192.040848"/>
      </g>
     </g>
    </g>
    <g id="ytick_61">
     <g id="line2d_99">
      <g>
       <use style="stroke:#000000;stroke-width:0.6;" x="180" xlink:href="#m85d83ec870" y="187.871162"/>
      </g>
     </g>
    </g>
    <g id="ytick_62">
     <g id="line2d_100">
      <g>
       <use style="stroke:#000000;stroke-width:0.6;" x="180" xlink:href="#m85d83ec870" y="184.193238"/>
      </g>
     </g>
    </g>
    <g id="ytick_63">
     <g id="line2d_101">
      <g>
       <use style="stroke:#000000;stroke-width:0.6;" x="180" xlink:href="#m85d83ec870" y="159.258827"/>
      </g>
     </g>
    </g>
    <g id="ytick_64">
     <g id="line2d_102">
      <g>
       <use style="stroke:#000000;stroke-width:0.6;" x="180" xlink:href="#m85d83ec870" y="146.597667"/>
      </g>
     </g>
    </g>
    <g id="ytick_65">
     <g id="line2d_103">
      <g>
       <use style="stroke:#000000;stroke-width:0.6;" x="180" xlink:href="#m85d83ec870" y="137.614431"/>
      </g>
     </g>
    </g>
    <g id="ytick_66">
     <g id="line2d_104">
      <g>
       <use style="stroke:#000000;stroke-width:0.6;" x="180" xlink:href="#m85d83ec870" y="130.646492"/>
      </g>
     </g>
    </g>
    <g id="ytick_67">
     <g id="line2d_105">
      <g>
       <use style="stroke:#000000;stroke-width:0.6;" x="180" xlink:href="#m85d83ec870" y="124.953271"/>
      </g>
     </g>
    </g>
    <g id="ytick_68">
     <g id="line2d_106">
      <g>
       <use style="stroke:#000000;stroke-width:0.6;" x="180" xlink:href="#m85d83ec870" y="120.139721"/>
      </g>
     </g>
    </g>
    <g id="ytick_69">
     <g id="line2d_107">
      <g>
       <use style="stroke:#000000;stroke-width:0.6;" x="180" xlink:href="#m85d83ec870" y="115.970035"/>
      </g>
     </g>
    </g>
    <g id="ytick_70">
     <g id="line2d_108">
      <g>
       <use style="stroke:#000000;stroke-width:0.6;" x="180" xlink:href="#m85d83ec870" y="112.292111"/>
      </g>
     </g>
    </g>
    <g id="ytick_71">
     <g id="line2d_109">
      <g>
       <use style="stroke:#000000;stroke-width:0.6;" x="180" xlink:href="#m85d83ec870" y="87.3577"/>
      </g>
     </g>
    </g>
    <g id="text_13">
     <!-- Fallas de cache L2 -->
     <defs>
      <path d="M 9.8125 72.90625 
L 51.703125 72.90625 
L 51.703125 64.59375 
L 19.671875 64.59375 
L 19.671875 43.109375 
L 48.578125 43.109375 
L 48.578125 34.8125 
L 19.671875 34.8125 
L 19.671875 0 
L 9.8125 0 
z
" id="DejaVuSans-46"/>
      <path d="M 44.28125 53.078125 
L 44.28125 44.578125 
Q 40.484375 46.53125 36.375 47.5 
Q 32.28125 48.484375 27.875 48.484375 
Q 21.1875 48.484375 17.84375 46.4375 
Q 14.5 44.390625 14.5 40.28125 
Q 14.5 37.15625 16.890625 35.375 
Q 19.28125 33.59375 26.515625 31.984375 
L 29.59375 31.296875 
Q 39.15625 29.25 43.1875 25.515625 
Q 47.21875 21.78125 47.21875 15.09375 
Q 47.21875 7.46875 41.1875 3.015625 
Q 35.15625 -1.421875 24.609375 -1.421875 
Q 20.21875 -1.421875 15.453125 -0.5625 
Q 10.6875 0.296875 5.421875 2 
L 5.421875 11.28125 
Q 10.40625 8.6875 15.234375 7.390625 
Q 20.0625 6.109375 24.8125 6.109375 
Q 31.15625 6.109375 34.5625 8.28125 
Q 37.984375 10.453125 37.984375 14.40625 
Q 37.984375 18.0625 35.515625 20.015625 
Q 33.0625 21.96875 24.703125 23.78125 
L 21.578125 24.515625 
Q 13.234375 26.265625 9.515625 29.90625 
Q 5.8125 33.546875 5.8125 39.890625 
Q 5.8125 47.609375 11.28125 51.796875 
Q 16.75 56 26.8125 56 
Q 31.78125 56 36.171875 55.265625 
Q 40.578125 54.546875 44.28125 53.078125 
z
" id="DejaVuSans-73"/>
      <path d="M 48.78125 52.59375 
L 48.78125 44.1875 
Q 44.96875 46.296875 41.140625 47.34375 
Q 37.3125 48.390625 33.40625 48.390625 
Q 24.65625 48.390625 19.8125 42.84375 
Q 14.984375 37.3125 14.984375 27.296875 
Q 14.984375 17.28125 19.8125 11.734375 
Q 24.65625 6.203125 33.40625 6.203125 
Q 37.3125 6.203125 41.140625 7.25 
Q 44.96875 8.296875 48.78125 10.40625 
L 48.78125 2.09375 
Q 45.015625 0.34375 40.984375 -0.53125 
Q 36.96875 -1.421875 32.421875 -1.421875 
Q 20.0625 -1.421875 12.78125 6.34375 
Q 5.515625 14.109375 5.515625 27.296875 
Q 5.515625 40.671875 12.859375 48.328125 
Q 20.21875 56 33.015625 56 
Q 37.15625 56 41.109375 55.140625 
Q 45.0625 54.296875 48.78125 52.59375 
z
" id="DejaVuSans-63"/>
      <path d="M 54.890625 33.015625 
L 54.890625 0 
L 45.90625 0 
L 45.90625 32.71875 
Q 45.90625 40.484375 42.875 44.328125 
Q 39.84375 48.1875 33.796875 48.1875 
Q 26.515625 48.1875 22.3125 43.546875 
Q 18.109375 38.921875 18.109375 30.90625 
L 18.109375 0 
L 9.078125 0 
L 9.078125 75.984375 
L 18.109375 75.984375 
L 18.109375 46.1875 
Q 21.34375 51.125 25.703125 53.5625 
Q 30.078125 56 35.796875 56 
Q 45.21875 56 50.046875 50.171875 
Q 54.890625 44.34375 54.890625 33.015625 
z
" id="DejaVuSans-68"/>
      <path d="M 9.8125 72.90625 
L 19.671875 72.90625 
L 19.671875 8.296875 
L 55.171875 8.296875 
L 55.171875 0 
L 9.8125 0 
z
" id="DejaVuSans-4c"/>
     </defs>
     <g transform="translate(149.320312 409.772656)rotate(-90)scale(0.1 -0.1)">
      <use xlink:href="#DejaVuSans-46"/>
      <use x="57.378906" xlink:href="#DejaVuSans-61"/>
      <use x="118.658203" xlink:href="#DejaVuSans-6c"/>
      <use x="146.441406" xlink:href="#DejaVuSans-6c"/>
      <use x="174.224609" xlink:href="#DejaVuSans-61"/>
      <use x="235.503906" xlink:href="#DejaVuSans-73"/>
      <use x="287.603516" xlink:href="#DejaVuSans-20"/>
      <use x="319.390625" xlink:href="#DejaVuSans-64"/>
      <use x="382.867188" xlink:href="#DejaVuSans-65"/>
      <use x="444.390625" xlink:href="#DejaVuSans-20"/>
      <use x="476.177734" xlink:href="#DejaVuSans-63"/>
      <use x="531.158203" xlink:href="#DejaVuSans-61"/>
      <use x="592.4375" xlink:href="#DejaVuSans-63"/>
      <use x="647.417969" xlink:href="#DejaVuSans-68"/>
      <use x="710.796875" xlink:href="#DejaVuSans-65"/>
      <use x="772.320312" xlink:href="#DejaVuSans-20"/>
      <use x="804.107422" xlink:href="#DejaVuSans-4c"/>
      <use x="859.820312" xlink:href="#DejaVuSans-32"/>
     </g>
    </g>
   </g>
   <g id="line2d_110">
    <path clip-path="url(#pd458505897)" d="M 230.727273 560.828537 
L 343.454545 542.340995 
L 456.181818 512.047337 
L 568.909091 493.72095 
L 681.636364 348.710814 
L 794.363636 292.682601 
L 907.090909 249.085206 
L 1019.818182 205.383583 
L 1132.545455 159.741895 
L 1245.272727 111.6 
" style="fill:none;stroke:#000000;stroke-dasharray:5.55,2.4;stroke-dashoffset:0;stroke-width:1.5;"/>
    <defs>
     <path d="M -3 3 
L 3 -3 
M -3 -3 
L 3 3 
" id="m1cd87fb6e4" style="stroke:#000000;"/>
    </defs>
    <g clip-path="url(#pd458505897)">
     <use style="stroke:#000000;" x="230.727273" xlink:href="#m1cd87fb6e4" y="560.828537"/>
     <use style="stroke:#000000;" x="343.454545" xlink:href="#m1cd87fb6e4" y="542.340995"/>
     <use style="stroke:#000000;" x="456.181818" xlink:href="#m1cd87fb6e4" y="512.047337"/>
     <use style="stroke:#000000;" x="568.909091" xlink:href="#m1cd87fb6e4" y="493.72095"/>
     <use style="stroke:#000000;" x="681.636364" xlink:href="#m1cd87fb6e4" y="348.710814"/>
     <use style="stroke:#000000;" x="794.363636" xlink:href="#m1cd87fb6e4" y="292.682601"/>
     <use style="stroke:#000000;" x="907.090909" xlink:href="#m1cd87fb6e4" y="249.085206"/>
     <use style="stroke:#000000;" x="1019.818182" xlink:href="#m1cd87fb6e4" y="205.383583"/>
     <use style="stroke:#000000;" x="1132.545455" xlink:href="#m1cd87fb6e4" y="159.741895"/>
     <use style="stroke:#000000;" x="1245.272727" xlink:href="#m1cd87fb6e4" y="111.6"/>
    </g>
   </g>
   <g id="line2d_111">
    <path clip-path="url(#pd458505897)" d="M 230.727273 615.6 
L 343.454545 599.648825 
L 456.181818 593.955604 
L 568.909091 567.497658 
L 681.636364 554.836498 
L 794.363636 499.979367 
L 907.090909 499.554513 
L 1019.818182 406.609719 
L 1132.545455 354.395549 
L 1245.272727 332.674884 
" style="fill:none;stroke:#000000;stroke-dasharray:5.55,2.4;stroke-dashoffset:0;stroke-width:1.5;"/>
    <defs>
     <path d="M 0 1.5 
C 0.397805 1.5 0.77937 1.341951 1.06066 1.06066 
C 1.341951 0.77937 1.5 0.397805 1.5 0 
C 1.5 -0.397805 1.341951 -0.77937 1.06066 -1.06066 
C 0.77937 -1.341951 0.397805 -1.5 0 -1.5 
C -0.397805 -1.5 -0.77937 -1.341951 -1.06066 -1.06066 
C -1.341951 -0.77937 -1.5 -0.397805 -1.5 0 
C -1.5 0.397805 -1.341951 0.77937 -1.06066 1.06066 
C -0.77937 1.341951 -0.397805 1.5 0 1.5 
z
" id="mf652a50044" style="stroke:#000000;"/>
    </defs>
    <g clip-path="url(#pd458505897)">
     <use style="stroke:#000000;" x="230.727273" xlink:href="#mf652a50044" y="615.6"/>
     <use style="stroke:#000000;" x="343.454545" xlink:href="#mf652a50044" y="599.648825"/>
     <use style="stroke:#000000;" x="456.181818" xlink:href="#mf652a50044" y="593.955604"/>
     <use style="stroke:#000000;" x="568.909091" xlink:href="#mf652a50044" y="567.497658"/>
     <use style="stroke:#000000;" x="681.636364" xlink:href="#mf652a50044" y="554.836498"/>
     <use style="stroke:#000000;" x="794.363636" xlink:href="#mf652a50044" y="499.979367"/>
     <use style="stroke:#000000;" x="907.090909" xlink:href="#mf652a50044" y="499.554513"/>
     <use style="stroke:#000000;" x="1019.818182" xlink:href="#mf652a50044" y="406.609719"/>
     <use style="stroke:#000000;" x="1132.545455" xlink:href="#mf652a50044" y="354.395549"/>
     <use style="stroke:#000000;" x="1245.272727" xlink:href="#mf652a50044" y="332.674884"/>
    </g>
   </g>
   <g id="line2d_112">
    <path clip-path="url(#pd458505897)" d="M 230.727273 595.740448 
L 343.454545 590.665589 
L 456.181818 581.294444 
L 568.909091 575.989132 
L 681.636364 566.045012 
L 794.363636 548.570303 
L 907.090909 477.036308 
L 1019.818182 463.312882 
L 1132.545455 409.866771 
L 1245.272727 353.996499 
" style="fill:none;stroke:#000000;stroke-dasharray:5.55,2.4;stroke-dashoffset:0;stroke-width:1.5;"/>
    <defs>
     <path d="M -0.49999 0.49999 
L 0.50001 0.49999 
L 0.50001 -0.50001 
L -0.49999 -0.50001 
z
" id="md3058c2ef1"/>
    </defs>
    <g clip-path="url(#pd458505897)">
     <use x="230.727273" xlink:href="#md3058c2ef1" y="595.740448"/>
     <use x="343.454545" xlink:href="#md3058c2ef1" y="590.665589"/>
     <use x="456.181818" xlink:href="#md3058c2ef1" y="581.294444"/>
     <use x="568.909091" xlink:href="#md3058c2ef1" y="575.989132"/>
     <use x="681.636364" xlink:href="#md3058c2ef1" y="566.045012"/>
     <use x="794.363636" xlink:href="#md3058c2ef1" y="548.570303"/>
     <use x="907.090909" xlink:href="#md3058c2ef1" y="477.036308"/>
     <use x="1019.818182" xlink:href="#md3058c2ef1" y="463.312882"/>
     <use x="1132.545455" xlink:href="#md3058c2ef1" y="409.866771"/>
     <use x="1245.272727" xlink:href="#md3058c2ef1" y="353.996499"/>
    </g>
   </g>
   <g id="line2d_113">
    <path clip-path="url(#pd458505897)" d="M 230.727273 612.309985 
L 343.454545 595.740448 
L 456.181818 587.689408 
L 568.909091 580.158818 
L 681.636364 578.004429 
L 794.363636 550.666812 
L 907.090909 517.841451 
L 1019.818182 471.247489 
L 1132.545455 377.064226 
L 1245.272727 366.750342 
" style="fill:none;stroke:#000000;stroke-dasharray:5.55,2.4;stroke-dashoffset:0;stroke-width:1.5;"/>
    <defs>
     <path d="M 0 3 
C 0.795609 3 1.55874 2.683901 2.12132 2.12132 
C 2.683901 1.55874 3 0.795609 3 0 
C 3 -0.795609 2.683901 -1.55874 2.12132 -2.12132 
C 1.55874 -2.683901 0.795609 -3 0 -3 
C -0.795609 -3 -1.55874 -2.683901 -2.12132 -2.12132 
C -2.683901 -1.55874 -3 -0.795609 -3 0 
C -3 0.795609 -2.683901 1.55874 -2.12132 2.12132 
C -1.55874 2.683901 -0.795609 3 0 3 
z
" id="m4eff35626e" style="stroke:#000000;"/>
    </defs>
    <g clip-path="url(#pd458505897)">
     <use style="stroke:#000000;" x="230.727273" xlink:href="#m4eff35626e" y="612.309985"/>
     <use style="stroke:#000000;" x="343.454545" xlink:href="#m4eff35626e" y="595.740448"/>
     <use style="stroke:#000000;" x="456.181818" xlink:href="#m4eff35626e" y="587.689408"/>
     <use style="stroke:#000000;" x="568.909091" xlink:href="#m4eff35626e" y="580.158818"/>
     <use style="stroke:#000000;" x="681.636364" xlink:href="#m4eff35626e" y="578.004429"/>
     <use style="stroke:#000000;" x="794.363636" xlink:href="#m4eff35626e" y="550.666812"/>
     <use style="stroke:#000000;" x="907.090909" xlink:href="#m4eff35626e" y="517.841451"/>
     <use style="stroke:#000000;" x="1019.818182" xlink:href="#m4eff35626e" y="471.247489"/>
     <use style="stroke:#000000;" x="1132.545455" xlink:href="#m4eff35626e" y="377.064226"/>
     <use style="stroke:#000000;" x="1245.272727" xlink:href="#m4eff35626e" y="366.750342"/>
    </g>
   </g>
   <g id="line2d_114">
    <path clip-path="url(#pd458505897)" d="M 230.727273 604.117329 
L 343.454545 593.955604 
L 456.181818 583.69765 
L 568.909091 557.418652 
L 681.636364 556.360033 
L 794.363636 542.010556 
L 907.090909 510.09506 
L 1019.818182 469.138586 
L 1132.545455 408.184486 
L 1245.272727 340.839338 
" style="fill:none;stroke:#000000;stroke-dasharray:5.55,2.4;stroke-dashoffset:0;stroke-width:1.5;"/>
    <defs>
     <path d="M -0 3 
L 3 -3 
L -3 -3 
z
" id="m3f9b0f24ee" style="stroke:#000000;stroke-linejoin:miter;"/>
    </defs>
    <g clip-path="url(#pd458505897)">
     <use style="stroke:#000000;stroke-linejoin:miter;" x="230.727273" xlink:href="#m3f9b0f24ee" y="604.117329"/>
     <use style="stroke:#000000;stroke-linejoin:miter;" x="343.454545" xlink:href="#m3f9b0f24ee" y="593.955604"/>
     <use style="stroke:#000000;stroke-linejoin:miter;" x="456.181818" xlink:href="#m3f9b0f24ee" y="583.69765"/>
     <use style="stroke:#000000;stroke-linejoin:miter;" x="568.909091" xlink:href="#m3f9b0f24ee" y="557.418652"/>
     <use style="stroke:#000000;stroke-linejoin:miter;" x="681.636364" xlink:href="#m3f9b0f24ee" y="556.360033"/>
     <use style="stroke:#000000;stroke-linejoin:miter;" x="794.363636" xlink:href="#m3f9b0f24ee" y="542.010556"/>
     <use style="stroke:#000000;stroke-linejoin:miter;" x="907.090909" xlink:href="#m3f9b0f24ee" y="510.09506"/>
     <use style="stroke:#000000;stroke-linejoin:miter;" x="1019.818182" xlink:href="#m3f9b0f24ee" y="469.138586"/>
     <use style="stroke:#000000;stroke-linejoin:miter;" x="1132.545455" xlink:href="#m3f9b0f24ee" y="408.184486"/>
     <use style="stroke:#000000;stroke-linejoin:miter;" x="1245.272727" xlink:href="#m3f9b0f24ee" y="340.839338"/>
    </g>
   </g>
   <g id="line2d_115">
    <path clip-path="url(#pd458505897)" d="M 230.727273 606.616764 
L 343.454545 599.648825 
L 456.181818 584.972368 
L 568.909091 573.190879 
L 681.636364 548.978495 
L 794.363636 526.925907 
L 907.090909 486.837141 
L 1019.818182 434.779969 
L 1132.545455 397.126135 
L 1245.272727 356.849025 
" style="fill:none;stroke:#000000;stroke-dasharray:5.55,2.4;stroke-dashoffset:0;stroke-width:1.5;"/>
    <defs>
     <path d="M 0 -3 
L -3 3 
L 3 3 
z
" id="m727cfcdd08" style="stroke:#000000;stroke-linejoin:miter;"/>
    </defs>
    <g clip-path="url(#pd458505897)">
     <use style="stroke:#000000;stroke-linejoin:miter;" x="230.727273" xlink:href="#m727cfcdd08" y="606.616764"/>
     <use style="stroke:#000000;stroke-linejoin:miter;" x="343.454545" xlink:href="#m727cfcdd08" y="599.648825"/>
     <use style="stroke:#000000;stroke-linejoin:miter;" x="456.181818" xlink:href="#m727cfcdd08" y="584.972368"/>
     <use style="stroke:#000000;stroke-linejoin:miter;" x="568.909091" xlink:href="#m727cfcdd08" y="573.190879"/>
     <use style="stroke:#000000;stroke-linejoin:miter;" x="681.636364" xlink:href="#m727cfcdd08" y="548.978495"/>
     <use style="stroke:#000000;stroke-linejoin:miter;" x="794.363636" xlink:href="#m727cfcdd08" y="526.925907"/>
     <use style="stroke:#000000;stroke-linejoin:miter;" x="907.090909" xlink:href="#m727cfcdd08" y="486.837141"/>
     <use style="stroke:#000000;stroke-linejoin:miter;" x="1019.818182" xlink:href="#m727cfcdd08" y="434.779969"/>
     <use style="stroke:#000000;stroke-linejoin:miter;" x="1132.545455" xlink:href="#m727cfcdd08" y="397.126135"/>
     <use style="stroke:#000000;stroke-linejoin:miter;" x="1245.272727" xlink:href="#m727cfcdd08" y="356.849025"/>
    </g>
   </g>
   <g id="patch_3">
    <path d="M 180 640.8 
L 180 86.4 
" style="fill:none;stroke:#000000;stroke-linecap:square;stroke-linejoin:miter;stroke-width:0.8;"/>
   </g>
   <g id="patch_4">
    <path d="M 1296 640.8 
L 1296 86.4 
" style="fill:none;stroke:#000000;stroke-linecap:square;stroke-linejoin:miter;stroke-width:0.8;"/>
   </g>
   <g id="patch_5">
    <path d="M 180 640.8 
L 1296 640.8 
" style="fill:none;stroke:#000000;stroke-linecap:square;stroke-linejoin:miter;stroke-width:0.8;"/>
   </g>
   <g id="patch_6">
    <path d="M 180 86.4 
L 1296 86.4 
" style="fill:none;stroke:#000000;stroke-linecap:square;stroke-linejoin:miter;stroke-width:0.8;"/>
   </g>
   <g id="text_14">
    <!-- Transposición de matrices (fallas de cache L2) -->
    <defs>
     <path d="M 54.890625 33.015625 
L 54.890625 0 
L 45.90625 0 
L 45.90625 32.71875 
Q 45.90625 40.484375 42.875 44.328125 
Q 39.84375 48.1875 33.796875 48.1875 
Q 26.515625 48.1875 22.3125 43.546875 
Q 18.109375 38.921875 18.109375 30.90625 
L 18.109375 0 
L 9.078125 0 
L 9.078125 54.6875 
L 18.109375 54.6875 
L 18.109375 46.1875 
Q 21.34375 51.125 25.703125 53.5625 
Q 30.078125 56 35.796875 56 
Q 45.21875 56 50.046875 50.171875 
Q 54.890625 44.34375 54.890625 33.015625 
z
" id="DejaVuSans-6e"/>
     <path d="M 18.109375 8.203125 
L 18.109375 -20.796875 
L 9.078125 -20.796875 
L 9.078125 54.6875 
L 18.109375 54.6875 
L 18.109375 46.390625 
Q 20.953125 51.265625 25.265625 53.625 
Q 29.59375 56 35.59375 56 
Q 45.5625 56 51.78125 48.09375 
Q 58.015625 40.1875 58.015625 27.296875 
Q 58.015625 14.40625 51.78125 6.484375 
Q 45.5625 -1.421875 35.59375 -1.421875 
Q 29.59375 -1.421875 25.265625 0.953125 
Q 20.953125 3.328125 18.109375 8.203125 
z
M 48.6875 27.296875 
Q 48.6875 37.203125 44.609375 42.84375 
Q 40.53125 48.484375 33.40625 48.484375 
Q 26.265625 48.484375 22.1875 42.84375 
Q 18.109375 37.203125 18.109375 27.296875 
Q 18.109375 17.390625 22.1875 11.75 
Q 26.265625 6.109375 33.40625 6.109375 
Q 40.53125 6.109375 44.609375 11.75 
Q 48.6875 17.390625 48.6875 27.296875 
z
" id="DejaVuSans-70"/>
     <path d="M 30.609375 48.390625 
Q 23.390625 48.390625 19.1875 42.75 
Q 14.984375 37.109375 14.984375 27.296875 
Q 14.984375 17.484375 19.15625 11.84375 
Q 23.34375 6.203125 30.609375 6.203125 
Q 37.796875 6.203125 41.984375 11.859375 
Q 46.1875 17.53125 46.1875 27.296875 
Q 46.1875 37.015625 41.984375 42.703125 
Q 37.796875 48.390625 30.609375 48.390625 
z
M 30.609375 56 
Q 42.328125 56 49.015625 48.375 
Q 55.71875 40.765625 55.71875 27.296875 
Q 55.71875 13.875 49.015625 6.21875 
Q 42.328125 -1.421875 30.609375 -1.421875 
Q 18.84375 -1.421875 12.171875 6.21875 
Q 5.515625 13.875 5.515625 27.296875 
Q 5.515625 40.765625 12.171875 48.375 
Q 18.84375 56 30.609375 56 
z
M 37.40625 79.984375 
L 47.125 79.984375 
L 31.21875 61.625 
L 23.734375 61.625 
z
" id="DejaVuSans-f3"/>
     <path d="M 31 75.875 
Q 24.46875 64.65625 21.28125 53.65625 
Q 18.109375 42.671875 18.109375 31.390625 
Q 18.109375 20.125 21.3125 9.0625 
Q 24.515625 -2 31 -13.1875 
L 23.1875 -13.1875 
Q 15.875 -1.703125 12.234375 9.375 
Q 8.59375 20.453125 8.59375 31.390625 
Q 8.59375 42.28125 12.203125 53.3125 
Q 15.828125 64.359375 23.1875 75.875 
z
" id="DejaVuSans-28"/>
     <path d="M 37.109375 75.984375 
L 37.109375 68.5 
L 28.515625 68.5 
Q 23.6875 68.5 21.796875 66.546875 
Q 19.921875 64.59375 19.921875 59.515625 
L 19.921875 54.6875 
L 34.71875 54.6875 
L 34.71875 47.703125 
L 19.921875 47.703125 
L 19.921875 0 
L 10.890625 0 
L 10.890625 47.703125 
L 2.296875 47.703125 
L 2.296875 54.6875 
L 10.890625 54.6875 
L 10.890625 58.5 
Q 10.890625 67.625 15.140625 71.796875 
Q 19.390625 75.984375 28.609375 75.984375 
z
" id="DejaVuSans-66"/>
     <path d="M 8.015625 75.875 
L 15.828125 75.875 
Q 23.140625 64.359375 26.78125 53.3125 
Q 30.421875 42.28125 30.421875 31.390625 
Q 30.421875 20.453125 26.78125 9.375 
Q 23.140625 -1.703125 15.828125 -13.1875 
L 8.015625 -13.1875 
Q 14.5 -2 17.703125 9.0625 
Q 20.90625 20.125 20.90625 31.390625 
Q 20.90625 42.671875 17.703125 53.65625 
Q 14.5 64.65625 8.015625 75.875 
z
" id="DejaVuSans-29"/>
    </defs>
    <g transform="translate(598.460625 80.4)scale(0.12 -0.12)">
     <use xlink:href="#DejaVuSans-54"/>
     <use x="60.865234" xlink:href="#DejaVuSans-72"/>
     <use x="101.978516" xlink:href="#DejaVuSans-61"/>
     <use x="163.257812" xlink:href="#DejaVuSans-6e"/>
     <use x="226.636719" xlink:href="#DejaVuSans-73"/>
     <use x="278.736328" xlink:href="#DejaVuSans-70"/>
     <use x="342.212891" xlink:href="#DejaVuSans-6f"/>
     <use x="403.394531" xlink:href="#DejaVuSans-73"/>
     <use x="455.494141" xlink:href="#DejaVuSans-69"/>
     <use x="483.277344" xlink:href="#DejaVuSans-63"/>
     <use x="538.257812" xlink:href="#DejaVuSans-69"/>
     <use x="566.041016" xlink:href="#DejaVuSans-f3"/>
     <use x="627.222656" xlink:href="#DejaVuSans-6e"/>
     <use x="690.601562" xlink:href="#DejaVuSans-20"/>
     <use x="722.388672" xlink:href="#DejaVuSans-64"/>
     <use x="785.865234" xlink:href="#DejaVuSans-65"/>
     <use x="847.388672" xlink:href="#DejaVuSans-20"/>
     <use x="879.175781" xlink:href="#DejaVuSans-6d"/>
     <use x="976.587891" xlink:href="#DejaVuSans-61"/>
     <use x="1037.867188" xlink:href="#DejaVuSans-74"/>
     <use x="1077.076172" xlink:href="#DejaVuSans-72"/>
     <use x="1118.189453" xlink:href="#DejaVuSans-69"/>
     <use x="1145.972656" xlink:href="#DejaVuSans-63"/>
     <use x="1200.953125" xlink:href="#DejaVuSans-65"/>
     <use x="1262.476562" xlink:href="#DejaVuSans-73"/>
     <use x="1314.576172" xlink:href="#DejaVuSans-20"/>
     <use x="1346.363281" xlink:href="#DejaVuSans-28"/>
     <use x="1385.376953" xlink:href="#DejaVuSans-66"/>
     <use x="1420.582031" xlink:href="#DejaVuSans-61"/>
     <use x="1481.861328" xlink:href="#DejaVuSans-6c"/>
     <use x="1509.644531" xlink:href="#DejaVuSans-6c"/>
     <use x="1537.427734" xlink:href="#DejaVuSans-61"/>
     <use x="1598.707031" xlink:href="#DejaVuSans-73"/>
     <use x="1650.806641" xlink:href="#DejaVuSans-20"/>
     <use x="1682.59375" xlink:href="#DejaVuSans-64"/>
     <use x="1746.070312" xlink:href="#DejaVuSans-65"/>
     <use x="1807.59375" xlink:href="#DejaVuSans-20"/>
     <use x="1839.380859" xlink:href="#DejaVuSans-63"/>
     <use x="1894.361328" xlink:href="#DejaVuSans-61"/>
     <use x="1955.640625" xlink:href="#DejaVuSans-63"/>
     <use x="2010.621094" xlink:href="#DejaVuSans-68"/>
     <use x="2074" xlink:href="#DejaVuSans-65"/>
     <use x="2135.523438" xlink:href="#DejaVuSans-20"/>
     <use x="2167.310547" xlink:href="#DejaVuSans-4c"/>
     <use x="2223.023438" xlink:href="#DejaVuSans-32"/>
     <use x="2286.646484" xlink:href="#DejaVuSans-29"/>
    </g>
   </g>
   <g id="legend_1">
    <g id="patch_7">
     <path d="M 1080.8 635.8 
L 1289 635.8 
Q 1291 635.8 1291 633.8 
L 1291 546.73125 
Q 1291 544.73125 1289 544.73125 
L 1080.8 544.73125 
Q 1078.8 544.73125 1078.8 546.73125 
L 1078.8 633.8 
Q 1078.8 635.8 1080.8 635.8 
z
" style="fill:#ffffff;opacity:0.8;stroke:#cccccc;stroke-linejoin:miter;"/>
    </g>
    <g id="line2d_116">
     <path d="M 1082.8 552.829688 
L 1102.8 552.829688 
" style="fill:none;stroke:#000000;stroke-dasharray:5.55,2.4;stroke-dashoffset:0;stroke-width:1.5;"/>
    </g>
    <g id="line2d_117">
     <g>
      <use style="stroke:#000000;" x="1092.8" xlink:href="#m1cd87fb6e4" y="552.829688"/>
     </g>
    </g>
    <g id="text_15">
     <!-- Naive -->
     <defs>
      <path d="M 9.8125 72.90625 
L 23.09375 72.90625 
L 55.421875 11.921875 
L 55.421875 72.90625 
L 64.984375 72.90625 
L 64.984375 0 
L 51.703125 0 
L 19.390625 60.984375 
L 19.390625 0 
L 9.8125 0 
z
" id="DejaVuSans-4e"/>
      <path d="M 2.984375 54.6875 
L 12.5 54.6875 
L 29.59375 8.796875 
L 46.6875 54.6875 
L 56.203125 54.6875 
L 35.6875 0 
L 23.484375 0 
z
" id="DejaVuSans-76"/>
     </defs>
     <g transform="translate(1110.8 556.329688)scale(0.1 -0.1)">
      <use xlink:href="#DejaVuSans-4e"/>
      <use x="74.804688" xlink:href="#DejaVuSans-61"/>
      <use x="136.083984" xlink:href="#DejaVuSans-69"/>
      <use x="163.867188" xlink:href="#DejaVuSans-76"/>
      <use x="223.046875" xlink:href="#DejaVuSans-65"/>
     </g>
    </g>
    <g id="line2d_118">
     <path d="M 1082.8 567.507812 
L 1102.8 567.507812 
" style="fill:none;stroke:#000000;stroke-dasharray:5.55,2.4;stroke-dashoffset:0;stroke-width:1.5;"/>
    </g>
    <g id="line2d_119">
     <g>
      <use style="stroke:#000000;" x="1092.8" xlink:href="#mf652a50044" y="567.507812"/>
     </g>
    </g>
    <g id="text_16">
     <!-- Cache-Oblivious (submatriz 1x1) -->
     <defs>
      <path d="M 64.40625 67.28125 
L 64.40625 56.890625 
Q 59.421875 61.53125 53.78125 63.8125 
Q 48.140625 66.109375 41.796875 66.109375 
Q 29.296875 66.109375 22.65625 58.46875 
Q 16.015625 50.828125 16.015625 36.375 
Q 16.015625 21.96875 22.65625 14.328125 
Q 29.296875 6.6875 41.796875 6.6875 
Q 48.140625 6.6875 53.78125 8.984375 
Q 59.421875 11.28125 64.40625 15.921875 
L 64.40625 5.609375 
Q 59.234375 2.09375 53.4375 0.328125 
Q 47.65625 -1.421875 41.21875 -1.421875 
Q 24.65625 -1.421875 15.125 8.703125 
Q 5.609375 18.84375 5.609375 36.375 
Q 5.609375 53.953125 15.125 64.078125 
Q 24.65625 74.21875 41.21875 74.21875 
Q 47.75 74.21875 53.53125 72.484375 
Q 59.328125 70.75 64.40625 67.28125 
z
" id="DejaVuSans-43"/>
      <path d="M 4.890625 31.390625 
L 31.203125 31.390625 
L 31.203125 23.390625 
L 4.890625 23.390625 
z
" id="DejaVuSans-2d"/>
      <path d="M 39.40625 66.21875 
Q 28.65625 66.21875 22.328125 58.203125 
Q 16.015625 50.203125 16.015625 36.375 
Q 16.015625 22.609375 22.328125 14.59375 
Q 28.65625 6.59375 39.40625 6.59375 
Q 50.140625 6.59375 56.421875 14.59375 
Q 62.703125 22.609375 62.703125 36.375 
Q 62.703125 50.203125 56.421875 58.203125 
Q 50.140625 66.21875 39.40625 66.21875 
z
M 39.40625 74.21875 
Q 54.734375 74.21875 63.90625 63.9375 
Q 73.09375 53.65625 73.09375 36.375 
Q 73.09375 19.140625 63.90625 8.859375 
Q 54.734375 -1.421875 39.40625 -1.421875 
Q 24.03125 -1.421875 14.8125 8.828125 
Q 5.609375 19.09375 5.609375 36.375 
Q 5.609375 53.65625 14.8125 63.9375 
Q 24.03125 74.21875 39.40625 74.21875 
z
" id="DejaVuSans-4f"/>
      <path d="M 48.6875 27.296875 
Q 48.6875 37.203125 44.609375 42.84375 
Q 40.53125 48.484375 33.40625 48.484375 
Q 26.265625 48.484375 22.1875 42.84375 
Q 18.109375 37.203125 18.109375 27.296875 
Q 18.109375 17.390625 22.1875 11.75 
Q 26.265625 6.109375 33.40625 6.109375 
Q 40.53125 6.109375 44.609375 11.75 
Q 48.6875 17.390625 48.6875 27.296875 
z
M 18.109375 46.390625 
Q 20.953125 51.265625 25.265625 53.625 
Q 29.59375 56 35.59375 56 
Q 45.5625 56 51.78125 48.09375 
Q 58.015625 40.1875 58.015625 27.296875 
Q 58.015625 14.40625 51.78125 6.484375 
Q 45.5625 -1.421875 35.59375 -1.421875 
Q 29.59375 -1.421875 25.265625 0.953125 
Q 20.953125 3.328125 18.109375 8.203125 
L 18.109375 0 
L 9.078125 0 
L 9.078125 75.984375 
L 18.109375 75.984375 
z
" id="DejaVuSans-62"/>
      <path d="M 8.5 21.578125 
L 8.5 54.6875 
L 17.484375 54.6875 
L 17.484375 21.921875 
Q 17.484375 14.15625 20.5 10.265625 
Q 23.53125 6.390625 29.59375 6.390625 
Q 36.859375 6.390625 41.078125 11.03125 
Q 45.3125 15.671875 45.3125 23.6875 
L 45.3125 54.6875 
L 54.296875 54.6875 
L 54.296875 0 
L 45.3125 0 
L 45.3125 8.40625 
Q 42.046875 3.421875 37.71875 1 
Q 33.40625 -1.421875 27.6875 -1.421875 
Q 18.265625 -1.421875 13.375 4.4375 
Q 8.5 10.296875 8.5 21.578125 
z
M 31.109375 56 
z
" id="DejaVuSans-75"/>
      <path d="M 54.890625 54.6875 
L 35.109375 28.078125 
L 55.90625 0 
L 45.3125 0 
L 29.390625 21.484375 
L 13.484375 0 
L 2.875 0 
L 24.125 28.609375 
L 4.6875 54.6875 
L 15.28125 54.6875 
L 29.78125 35.203125 
L 44.28125 54.6875 
z
" id="DejaVuSans-78"/>
     </defs>
     <g transform="translate(1110.8 571.007812)scale(0.1 -0.1)">
      <use xlink:href="#DejaVuSans-43"/>
      <use x="69.824219" xlink:href="#DejaVuSans-61"/>
      <use x="131.103516" xlink:href="#DejaVuSans-63"/>
      <use x="186.083984" xlink:href="#DejaVuSans-68"/>
      <use x="249.462891" xlink:href="#DejaVuSans-65"/>
      <use x="310.986328" xlink:href="#DejaVuSans-2d"/>
      <use x="347.101562" xlink:href="#DejaVuSans-4f"/>
      <use x="425.8125" xlink:href="#DejaVuSans-62"/>
      <use x="489.289062" xlink:href="#DejaVuSans-6c"/>
      <use x="517.072266" xlink:href="#DejaVuSans-69"/>
      <use x="544.855469" xlink:href="#DejaVuSans-76"/>
      <use x="604.035156" xlink:href="#DejaVuSans-69"/>
      <use x="631.818359" xlink:href="#DejaVuSans-6f"/>
      <use x="693" xlink:href="#DejaVuSans-75"/>
      <use x="756.378906" xlink:href="#DejaVuSans-73"/>
      <use x="808.478516" xlink:href="#DejaVuSans-20"/>
      <use x="840.265625" xlink:href="#DejaVuSans-28"/>
      <use x="879.279297" xlink:href="#DejaVuSans-73"/>
      <use x="931.378906" xlink:href="#DejaVuSans-75"/>
      <use x="994.757812" xlink:href="#DejaVuSans-62"/>
      <use x="1058.234375" xlink:href="#DejaVuSans-6d"/>
      <use x="1155.646484" xlink:href="#DejaVuSans-61"/>
      <use x="1216.925781" xlink:href="#DejaVuSans-74"/>
      <use x="1256.134766" xlink:href="#DejaVuSans-72"/>
      <use x="1297.248047" xlink:href="#DejaVuSans-69"/>
      <use x="1325.03125" xlink:href="#DejaVuSans-7a"/>
      <use x="1377.521484" xlink:href="#DejaVuSans-20"/>
      <use x="1409.308594" xlink:href="#DejaVuSans-31"/>
      <use x="1472.931641" xlink:href="#DejaVuSans-78"/>
      <use x="1532.111328" xlink:href="#DejaVuSans-31"/>
      <use x="1595.734375" xlink:href="#DejaVuSans-29"/>
     </g>
    </g>
    <g id="line2d_120">
     <path d="M 1082.8 582.185938 
L 1102.8 582.185938 
" style="fill:none;stroke:#000000;stroke-dasharray:5.55,2.4;stroke-dashoffset:0;stroke-width:1.5;"/>
    </g>
    <g id="line2d_121">
     <g>
      <use x="1092.8" xlink:href="#md3058c2ef1" y="582.185938"/>
     </g>
    </g>
    <g id="text_17">
     <!-- Cache-Oblivious (submatriz 2x2) -->
     <g transform="translate(1110.8 585.685938)scale(0.1 -0.1)">
      <use xlink:href="#DejaVuSans-43"/>
      <use x="69.824219" xlink:href="#DejaVuSans-61"/>
      <use x="131.103516" xlink:href="#DejaVuSans-63"/>
      <use x="186.083984" xlink:href="#DejaVuSans-68"/>
      <use x="249.462891" xlink:href="#DejaVuSans-65"/>
      <use x="310.986328" xlink:href="#DejaVuSans-2d"/>
      <use x="347.101562" xlink:href="#DejaVuSans-4f"/>
      <use x="425.8125" xlink:href="#DejaVuSans-62"/>
      <use x="489.289062" xlink:href="#DejaVuSans-6c"/>
      <use x="517.072266" xlink:href="#DejaVuSans-69"/>
      <use x="544.855469" xlink:href="#DejaVuSans-76"/>
      <use x="604.035156" xlink:href="#DejaVuSans-69"/>
      <use x="631.818359" xlink:href="#DejaVuSans-6f"/>
      <use x="693" xlink:href="#DejaVuSans-75"/>
      <use x="756.378906" xlink:href="#DejaVuSans-73"/>
      <use x="808.478516" xlink:href="#DejaVuSans-20"/>
      <use x="840.265625" xlink:href="#DejaVuSans-28"/>
      <use x="879.279297" xlink:href="#DejaVuSans-73"/>
      <use x="931.378906" xlink:href="#DejaVuSans-75"/>
      <use x="994.757812" xlink:href="#DejaVuSans-62"/>
      <use x="1058.234375" xlink:href="#DejaVuSans-6d"/>
      <use x="1155.646484" xlink:href="#DejaVuSans-61"/>
      <use x="1216.925781" xlink:href="#DejaVuSans-74"/>
      <use x="1256.134766" xlink:href="#DejaVuSans-72"/>
      <use x="1297.248047" xlink:href="#DejaVuSans-69"/>
      <use x="1325.03125" xlink:href="#DejaVuSans-7a"/>
      <use x="1377.521484" xlink:href="#DejaVuSans-20"/>
      <use x="1409.308594" xlink:href="#DejaVuSans-32"/>
      <use x="1472.931641" xlink:href="#DejaVuSans-78"/>
      <use x="1532.111328" xlink:href="#DejaVuSans-32"/>
      <use x="1595.734375" xlink:href="#DejaVuSans-29"/>
     </g>
    </g>
    <g id="line2d_122">
     <path d="M 1082.8 596.864063 
L 1102.8 596.864063 
" style="fill:none;stroke:#000000;stroke-dasharray:5.55,2.4;stroke-dashoffset:0;stroke-width:1.5;"/>
    </g>
    <g id="line2d_123">
     <g>
      <use style="stroke:#000000;" x="1092.8" xlink:href="#m4eff35626e" y="596.864063"/>
     </g>
    </g>
    <g id="text_18">
     <!-- Cache-Oblivious (submatriz 4x4) -->
     <g transform="translate(1110.8 600.364063)scale(0.1 -0.1)">
      <use xlink:href="#DejaVuSans-43"/>
      <use x="69.824219" xlink:href="#DejaVuSans-61"/>
      <use x="131.103516" xlink:href="#DejaVuSans-63"/>
      <use x="186.083984" xlink:href="#DejaVuSans-68"/>
      <use x="249.462891" xlink:href="#DejaVuSans-65"/>
      <use x="310.986328" xlink:href="#DejaVuSans-2d"/>
      <use x="347.101562" xlink:href="#DejaVuSans-4f"/>
      <use x="425.8125" xlink:href="#DejaVuSans-62"/>
      <use x="489.289062" xlink:href="#DejaVuSans-6c"/>
      <use x="517.072266" xlink:href="#DejaVuSans-69"/>
      <use x="544.855469" xlink:href="#DejaVuSans-76"/>
      <use x="604.035156" xlink:href="#DejaVuSans-69"/>
      <use x="631.818359" xlink:href="#DejaVuSans-6f"/>
      <use x="693" xlink:href="#DejaVuSans-75"/>
      <use x="756.378906" xlink:href="#DejaVuSans-73"/>
      <use x="808.478516" xlink:href="#DejaVuSans-20"/>
      <use x="840.265625" xlink:href="#DejaVuSans-28"/>
      <use x="879.279297" xlink:href="#DejaVuSans-73"/>
      <use x="931.378906" xlink:href="#DejaVuSans-75"/>
      <use x="994.757812" xlink:href="#DejaVuSans-62"/>
      <use x="1058.234375" xlink:href="#DejaVuSans-6d"/>
      <use x="1155.646484" xlink:href="#DejaVuSans-61"/>
      <use x="1216.925781" xlink:href="#DejaVuSans-74"/>
      <use x="1256.134766" xlink:href="#DejaVuSans-72"/>
      <use x="1297.248047" xlink:href="#DejaVuSans-69"/>
      <use x="1325.03125" xlink:href="#DejaVuSans-7a"/>
      <use x="1377.521484" xlink:href="#DejaVuSans-20"/>
      <use x="1409.308594" xlink:href="#DejaVuSans-34"/>
      <use x="1472.931641" xlink:href="#DejaVuSans-78"/>
      <use x="1532.111328" xlink:href="#DejaVuSans-34"/>
      <use x="1595.734375" xlink:href="#DejaVuSans-29"/>
     </g>
    </g>
    <g id="line2d_124">
     <path d="M 1082.8 611.542188 
L 1102.8 611.542188 
" style="fill:none;stroke:#000000;stroke-dasharray:5.55,2.4;stroke-dashoffset:0;stroke-width:1.5;"/>
    </g>
    <g id="line2d_125">
     <g>
      <use style="stroke:#000000;stroke-linejoin:miter;" x="1092.8" xlink:href="#m3f9b0f24ee" y="611.542188"/>
     </g>
    </g>
    <g id="text_19">
     <!-- Cache-Oblivious (submatriz 8x8) -->
     <g transform="translate(1110.8 615.042188)scale(0.1 -0.1)">
      <use xlink:href="#DejaVuSans-43"/>
      <use x="69.824219" xlink:href="#DejaVuSans-61"/>
      <use x="131.103516" xlink:href="#DejaVuSans-63"/>
      <use x="186.083984" xlink:href="#DejaVuSans-68"/>
      <use x="249.462891" xlink:href="#DejaVuSans-65"/>
      <use x="310.986328" xlink:href="#DejaVuSans-2d"/>
      <use x="347.101562" xlink:href="#DejaVuSans-4f"/>
      <use x="425.8125" xlink:href="#DejaVuSans-62"/>
      <use x="489.289062" xlink:href="#DejaVuSans-6c"/>
      <use x="517.072266" xlink:href="#DejaVuSans-69"/>
      <use x="544.855469" xlink:href="#DejaVuSans-76"/>
      <use x="604.035156" xlink:href="#DejaVuSans-69"/>
      <use x="631.818359" xlink:href="#DejaVuSans-6f"/>
      <use x="693" xlink:href="#DejaVuSans-75"/>
      <use x="756.378906" xlink:href="#DejaVuSans-73"/>
      <use x="808.478516" xlink:href="#DejaVuSans-20"/>
      <use x="840.265625" xlink:href="#DejaVuSans-28"/>
      <use x="879.279297" xlink:href="#DejaVuSans-73"/>
      <use x="931.378906" xlink:href="#DejaVuSans-75"/>
      <use x="994.757812" xlink:href="#DejaVuSans-62"/>
      <use x="1058.234375" xlink:href="#DejaVuSans-6d"/>
      <use x="1155.646484" xlink:href="#DejaVuSans-61"/>
      <use x="1216.925781" xlink:href="#DejaVuSans-74"/>
      <use x="1256.134766" xlink:href="#DejaVuSans-72"/>
      <use x="1297.248047" xlink:href="#DejaVuSans-69"/>
      <use x="1325.03125" xlink:href="#DejaVuSans-7a"/>
      <use x="1377.521484" xlink:href="#DejaVuSans-20"/>
      <use x="1409.308594" xlink:href="#DejaVuSans-38"/>
      <use x="1472.931641" xlink:href="#DejaVuSans-78"/>
      <use x="1532.111328" xlink:href="#DejaVuSans-38"/>
      <use x="1595.734375" xlink:href="#DejaVuSans-29"/>
     </g>
    </g>
    <g id="line2d_126">
     <path d="M 1082.8 626.220313 
L 1102.8 626.220313 
" style="fill:none;stroke:#000000;stroke-dasharray:5.55,2.4;stroke-dashoffset:0;stroke-width:1.5;"/>
    </g>
    <g id="line2d_127">
     <g>
      <use style="stroke:#000000;stroke-linejoin:miter;" x="1092.8" xlink:href="#m727cfcdd08" y="626.220313"/>
     </g>
    </g>
    <g id="text_20">
     <!-- Cache-Oblivious (submatriz 16x16) -->
     <g transform="translate(1110.8 629.720313)scale(0.1 -0.1)">
      <use xlink:href="#DejaVuSans-43"/>
      <use x="69.824219" xlink:href="#DejaVuSans-61"/>
      <use x="131.103516" xlink:href="#DejaVuSans-63"/>
      <use x="186.083984" xlink:href="#DejaVuSans-68"/>
      <use x="249.462891" xlink:href="#DejaVuSans-65"/>
      <use x="310.986328" xlink:href="#DejaVuSans-2d"/>
      <use x="347.101562" xlink:href="#DejaVuSans-4f"/>
      <use x="425.8125" xlink:href="#DejaVuSans-62"/>
      <use x="489.289062" xlink:href="#DejaVuSans-6c"/>
      <use x="517.072266" xlink:href="#DejaVuSans-69"/>
      <use x="544.855469" xlink:href="#DejaVuSans-76"/>
      <use x="604.035156" xlink:href="#DejaVuSans-69"/>
      <use x="631.818359" xlink:href="#DejaVuSans-6f"/>
      <use x="693" xlink:href="#DejaVuSans-75"/>
      <use x="756.378906" xlink:href="#DejaVuSans-73"/>
      <use x="808.478516" xlink:href="#DejaVuSans-20"/>
      <use x="840.265625" xlink:href="#DejaVuSans-28"/>
      <use x="879.279297" xlink:href="#DejaVuSans-73"/>
      <use x="931.378906" xlink:href="#DejaVuSans-75"/>
      <use x="994.757812" xlink:href="#DejaVuSans-62"/>
      <use x="1058.234375" xlink:href="#DejaVuSans-6d"/>
      <use x="1155.646484" xlink:href="#DejaVuSans-61"/>
      <use x="1216.925781" xlink:href="#DejaVuSans-74"/>
      <use x="1256.134766" xlink:href="#DejaVuSans-72"/>
      <use x="1297.248047" xlink:href="#DejaVuSans-69"/>
      <use x="1325.03125" xlink:href="#DejaVuSans-7a"/>
      <use x="1377.521484" xlink:href="#DejaVuSans-20"/>
      <use x="1409.308594" xlink:href="#DejaVuSans-31"/>
      <use x="1472.931641" xlink:href="#DejaVuSans-36"/>
      <use x="1536.554688" xlink:href="#DejaVuSans-78"/>
      <use x="1595.734375" xlink:href="#DejaVuSans-31"/>
      <use x="1659.357422" xlink:href="#DejaVuSans-36"/>
      <use x="1722.980469" xlink:href="#DejaVuSans-29"/>
     </g>
    </g>
   </g>
  </g>
 </g>
 <defs>
  <clipPath id="pd458505897">
   <rect height="554.4" width="1116" x="180" y="86.4"/>
  </clipPath>
 </defs>
</svg>
